<?xml version="1.0" standalone="no"?>
<!DOCTYPE svg PUBLIC "-//W3C//DTD SVG 1.1//EN" "http://www.w3.org/Graphics/SVG/1.1/DTD/svg11.dtd" >
<svg xmlns="http://www.w3.org/2000/svg" xmlns:xlink="http://www.w3.org/1999/xlink" version="1.1">
<metadata>
Created by FontForge 20170731 at Sun Aug 16 10:48:59 2020
 By Aleksey,,,
Copyright (c) 2020 by Sarid Ezra. All rights reserved.
</metadata>
<defs>
<font id="Laginchy-SemiBold" horiz-adv-x="802" >
  <font-face 
    font-family="Laginchy"
    font-weight="600"
    font-stretch="normal"
    units-per-em="1000"
    panose-1="0 0 0 0 0 0 0 0 0 0"
    ascent="750"
    descent="-250"
    x-height="700"
    cap-height="700"
    bbox="-24 -291 1480 898"
    underline-thickness="50"
    underline-position="-175"
    unicode-range="U+000D-E00D"
  />
<missing-glyph horiz-adv-x="500" 
 />
    <glyph glyph-name="C_A" unicode="CA" horiz-adv-x="1419" 
d="M637 102q-17 -27 -42.5 -48.5t-56.5 -36.5t-66 -23.5t-71 -8.5q-90 0 -157.5 31.5t-113 83t-68 117t-22.5 133.5q0 97 33 166t85.5 113.5t117 65t127.5 20.5q46 0 87 -11.5t71 -32.5t47.5 -50.5t17.5 -65.5q0 -42 -21.5 -61t-46.5 -19q-23 0 -40.5 13.5t-17.5 37.5
q0 18 8.5 29t19 18.5t19.5 14.5t9 17q0 36 -39 61t-109 25q-69 0 -115.5 -28.5t-73.5 -75t-35.5 -106t-1 -121.5t30.5 -121.5t58.5 -106t82.5 -75t103 -28.5q45 0 90 20.5t82 61.5zM1408 8q2 -2 3 -4t1 -4h-275v4q0 2 3 4q6 2 15.5 5t17 9t10.5 17t-4 29l-45 102
q-40 1 -78 10t-75 22.5t-73.5 29.5t-72.5 33l-77 -179q-6 -18 -2.5 -32t11 -23.5t16 -15t14.5 -7.5q3 -3 3 -4v-4h-161v4q0 2 3 4q6 2 18.5 10t26 19.5t26.5 27t21 32.5l-1 -3l79 182q-56 25 -111 43.5t-112 18.5q-23 0 -33 -14t-18.5 -31.5t-19.5 -31.5t-36 -14
q-32 0 -44.5 20t-4.5 44t36.5 44t78.5 20q68 0 135.5 -24.5t136.5 -56.5l182 419h44l287 -644q7 -16 18 -26.5t21.5 -17.5t20 -11t15.5 -6zM843 284q34 -16 69 -31.5t70 -28t70 -21t71 -10.5l-161 363z" />
    <glyph glyph-name="C_H" unicode="CH" horiz-adv-x="1438" 
d="M637 102q-17 -27 -42.5 -48.5t-56.5 -36.5t-66 -23.5t-71 -8.5q-90 0 -157.5 31.5t-113 83t-68 117t-22.5 133.5q0 97 33 166t85.5 113.5t117 65t127.5 20.5q46 0 87 -11.5t71 -32.5t47.5 -50.5t17.5 -65.5q0 -42 -21.5 -61t-46.5 -19q-23 0 -40.5 13.5t-17.5 37.5
q0 18 8.5 29t19 18.5t19.5 14.5t9 17q0 36 -39 61t-109 25q-69 0 -115.5 -28.5t-73.5 -75t-35.5 -106t-1 -121.5t30.5 -121.5t58.5 -106t82.5 -75t103 -28.5q45 0 90 20.5t82 61.5zM1409 693q-6 -2 -17.5 -5t-23.5 -9.5t-20.5 -19t-8.5 -34.5v-549q0 -22 8.5 -34.5t20.5 -19
t23.5 -9.5t17.5 -5q2 -2 2 -4v-4h-283v4q0 2 3 4q6 2 17.5 5t23 9.5t20 19t8.5 34.5v170q-20 -6 -42.5 -8.5t-46.5 -2.5q-47 0 -99 8t-106 21v-188q0 -22 8.5 -34.5t20 -19t23 -9.5t17.5 -5q3 -3 3 -4v-4h-284v4q0 2 3 4q6 2 17.5 5t23 9.5t20 19t8.5 34.5v223
q-61 15 -116 26t-100 11q-23 0 -33 -14t-17.5 -31.5t-19 -31.5t-36.5 -14q-30 0 -43 19.5t-6.5 43.5t34 43.5t79.5 19.5q51 0 117.5 -14t140.5 -33v301q0 22 -8.5 34.5t-20 19t-23 9.5t-17.5 5q-3 0 -3 4v3h284v-3q0 -4 -3 -4q-6 -2 -17.5 -5t-23 -9.5t-20 -19t-8.5 -34.5
v-335q55 -13 107 -21t98 -8q25 0 47 2.5t42 8.5v353q0 22 -8.5 34.5t-20 19t-23 9.5t-17.5 5q-3 0 -3 4v3h283v-3q0 -4 -2 -4z" />
    <glyph glyph-name="C_K" unicode="CK" horiz-adv-x="1387" 
d="M897 363v-287q0 -22 8.5 -34.5t20 -19t23 -9.5t17.5 -5q3 -3 3 -4v-4h-285v4q0 2 3 4q6 2 17.5 5t23 9.5t20 19t8.5 34.5v138l-85 -91q-23 -25 -52.5 -49.5t-64 -44t-73 -32t-80.5 -12.5q-90 0 -157.5 31.5t-113 83t-68 117t-22.5 133.5q0 97 33 166t85.5 113.5t117 65
t127.5 20.5q46 0 87 -11.5t71.5 -32.5t48 -50.5t17.5 -65.5q0 -42 -21.5 -61t-47.5 -19q-23 0 -40.5 13.5t-17.5 37.5q0 18 8.5 29t19 19t19.5 14.5t9 16.5q0 36 -39 61t-109 25q-69 0 -115.5 -28.5t-73.5 -75t-35.5 -106t-1 -121.5t30.5 -121.5t58.5 -106t82.5 -75
t103 -28.5q30 0 58.5 12t53 28t43 32.5t27.5 25.5l117 124v374q0 22 -8.5 34.5t-20 19t-23 9.5t-17.5 5q-3 0 -3 4v3h284v-3.5t-2 -3.5q-6 -2 -17.5 -5t-23 -9.5t-20 -19t-8.5 -34.5v-225l193 206q23 29 24.5 55.5t-20.5 31.5q-3 0 -3 4v3h177v-3q0 -4 -2 -4q-7 -3 -19.5 -7
t-29 -10.5t-35 -17.5t-37.5 -28l-173 -185q68 -3 113.5 -36t75.5 -81t48 -102.5t32.5 -101.5t28.5 -78t36 -31t34.5 11.5t18.5 30.5l22 -8q-9 -28 -31.5 -44t-58.5 -16q-71 0 -116 32t-73.5 80.5t-45 105t-30 105t-29.5 80.5t-43 32z" />
    <glyph glyph-name="E_R" unicode="ER" horiz-adv-x="1323" 
d="M1220 -11q-67 0 -110.5 23t-71 58.5t-44.5 77t-31 79t-30 64.5t-42 33h-40v-248q0 -22 8.5 -34.5t20.5 -19t23.5 -9.5t17.5 -5q3 -3 3 -4v-4h-285v4q0 2 3 4q6 2 17.5 5t23 9.5t20 19t8.5 34.5v248h-270q-22 0 -37.5 -12t-26 -28.5t-16.5 -33.5t-8 -27q-2 -4 -4 -4
q-2 -1 -4 0v105v129q2 -1 4 -1q3 -2 4 -3q2 -10 8 -27t16.5 -33t26 -28t37.5 -12h270v276q0 22 -8.5 34.5t-20 19t-23 9.5t-17.5 5q-3 0 -3 4v3h288q80 0 135.5 -24.5t86 -62t36 -82.5t-13.5 -86t-64 -73t-114 -43q47 -17 78 -46.5t52 -64.5t34.5 -71t25 -66t24.5 -48.5
t33 -18.5q22 0 35 12t19 31l22 -9q-9 -27 -31.5 -43t-64.5 -16zM238 76q0 -22 8.5 -32.5t20 -14t23 -3.5h17.5h79q27 0 53.5 12.5t50.5 31.5t45.5 41.5t37.5 42.5t26 35.5t12 19.5q0 3 4 3h3l-65 -212h-527v4q0 2 3 4q6 2 17.5 5t23 9.5t20 19t8.5 34.5v549q0 22 -8.5 34.5
t-20 19t-23 9.5t-17.5 5q-3 0 -3 4v3h514v-166q-2 0 -4 1q-4 0 -4 2q-2 6 -10 28.5t-23.5 47t-39.5 43.5t-57 19h-164v-599zM851 675v-326h41q50 0 83.5 24t50 60.5t16.5 78.5t-16.5 78.5t-50 60.5t-83.5 24h-41z" />
    <glyph glyph-name="N_N" unicode="NN" horiz-adv-x="1254" 
d="M1120 0q-27 60 -64.5 108.5t-80.5 91t-89 81.5t-90 80.5t-84.5 88.5t-71.5 105v-479q0 -22 8.5 -34.5t20.5 -19t23.5 -9.5t17.5 -5q3 -3 3 -4v-4h-105q-27 60 -64.5 108.5t-80.5 91t-89 81.5t-90 80.5t-84.5 88.5t-71.5 105v-458q0 -22 9.5 -37.5t22.5 -26.5t25.5 -17
t18.5 -8q3 -3 3 -4v-4h-184v4q0 2 3 4q6 2 18.5 8t25.5 17t22.5 26.5t9.5 37.5v500q0 28 -8.5 45.5t-20 28t-23 15.5t-17.5 7q-3 0 -3 4v3h172q24 -59 57.5 -105t72 -85t79 -72.5t78.5 -66.5t70.5 -68t54.5 -77v371q0 28 -8.5 45.5t-20 28t-23 15.5t-17.5 7q-3 0 -3 4v3h172
q24 -59 57.5 -105t72 -85t79 -72.5t78.5 -66.5t70.5 -68t54.5 -77v381q-1 21 -11 36t-23 25.5t-25 16.5t-18 8q-3 0 -3 4v3h185v-3q0 -4 -3 -4q-6 -2 -18.5 -8.5t-25.5 -17t-22.5 -26.5t-9.5 -38v-603h-32v0z" />
    <glyph glyph-name="O_O" unicode="OO" horiz-adv-x="1274" 
d="M1234 350q0 -68 -22.5 -133.5t-68 -117t-113 -83t-157.5 -31.5q-75 0 -133.5 21.5t-102.5 58.5q-44 -37 -102.5 -58.5t-133.5 -21.5q-90 0 -157.5 31.5t-113 83t-68 117t-22.5 133.5q0 69 22.5 134.5t68 116.5t113 82.5t157.5 31.5q75 0 133.5 -21.5t102.5 -58.5
q44 37 102.5 58.5t133.5 21.5q90 0 157.5 -31.5t113 -82.5t68 -116.5t22.5 -134.5zM204 266q14 -51 36 -97.5t51 -81t63.5 -55t73.5 -20.5q53 0 93.5 31.5t63.5 76.5q-36 49 -54.5 108.5t-18.5 121.5q0 50 12 97.5t35 90.5q-34 66 -81.5 108t-104.5 42q-30 0 -60 -13
q-50 -21 -79.5 -64.5t-41.5 -100t-8.5 -120t20.5 -124.5zM715 161q33 -66 80.5 -107.5t104.5 -41.5q30 0 60 13q49 21 79 64.5t42 100t8.5 120t-19.5 124.5q-14 51 -36 97.5t-51 81t-64 55t-74 20.5q-26 0 -49.5 -8.5t-43.5 -23t-36.5 -34t-27.5 -41.5q37 -50 55.5 -109
t18.5 -122q0 -101 -47 -189z" />
    <glyph glyph-name="T_T" unicode="TT" horiz-adv-x="1055" 
d="M1041 525q-2 10 -18 35.5t-41 51t-56 45.5t-63 20h-66v-601q0 -22 8.5 -34.5t20 -19t23 -9.5t17.5 -5q3 -3 3 -4v-4h-284v4q0 2 3 4q6 2 17.5 5t23 9.5t20 19t8.5 34.5v601h-259v-601q0 -22 8.5 -34.5t20 -19t23 -9.5t17.5 -5q3 -3 3 -4v-4h-284v4q0 2 3 4q6 2 17.5 5
t23 9.5t20 19t8.5 34.5v601h-65q-33 0 -64 -20t-56 -45.5t-41 -51t-18 -35.5q-2 -2 -4 -2q-2 -1 -4 -1l33 178h978l31 -178q-1 0 -3 1q-4 0 -4 2z" />
    <glyph glyph-name="g_a" unicode="ga" horiz-adv-x="1379" 
d="M364 337q111 0 185.5 -27.5t111.5 -69t37 -89.5t-37 -89.5t-111.5 -69t-185.5 -27.5q-99 0 -168.5 22t-110 56t-51.5 76t7 82t65 72.5t123 49.5q-16 7 -26.5 18.5t-10.5 31.5q0 11 5 19.5t13 16.5q-50 19 -79 49.5t-37 64.5t4.5 68t46.5 61.5t88.5 45t130.5 17.5
q75 0 129 -17t88 -44q23 29 54 42.5t65 13.5q32 0 63 -11t55 -31t39 -48t15 -62q0 -28 -16.5 -42.5t-36.5 -14.5q-19 0 -34 13.5t-15 41.5q0 12 5.5 23t12 21t11 18t1.5 14q-13 27 -39.5 41.5t-58.5 14.5q-29 0 -56 -12.5t-46 -39.5q34 -37 36 -81t-27.5 -82t-90.5 -63.5
t-154 -25.5q-73 0 -129 17q-7 -5 -13 -12.5t-6 -16.5q0 -12 7.5 -19t18 -11.5t22.5 -6.5t22 -2q18 2 37.5 3t40.5 1zM1359 51q-5 -10 -12.5 -21t-20.5 -20t-30.5 -15t-41.5 -6q-18 0 -38.5 4t-39 15.5t-32 33t-16.5 56.5q-26 -56 -76.5 -82.5t-106.5 -26.5q-37 0 -72 11.5
t-62.5 33t-44 53.5t-16.5 74q0 43 16 72.5t41.5 50t59 34.5t68.5 26.5t68.5 27t60.5 35t44 50t19 73.5q-1 28 -6 55.5t-17.5 49t-34.5 35t-57 13.5q-36 0 -64 -9.5t-45 -24.5l-9 -8l-21 20q29 23 65 35t73 12q123 0 190 -57.5t67 -161.5l-1 -423q0 -6 0.5 -14t2.5 -16
t6.5 -13.5t13.5 -5.5q17 0 30 16t19 30zM288 280q-50 -24 -79.5 -54.5t-40.5 -62.5t-5.5 -63t25 -55t51 -39t72.5 -15q26 0 55 7t61 22q50 23 79.5 53.5t40.5 62.5t5.5 63t-25 55t-51 39t-72.5 15q-26 0 -55 -6.5t-61 -21.5zM313 665q-59 -31 -82 -75t-16.5 -84t37.5 -68
t80 -28q41 0 90 25q40 20 63 47t31.5 55.5t4 56t-19.5 49t-40.5 34.5t-57.5 13q-41 0 -90 -25zM895 167q0 -34 8 -58.5t21.5 -40.5t31.5 -24t37 -8q24 0 48 11t43 32.5t31 53t12 71.5v227q-15 -33 -38 -53t-49 -35.5t-52 -28.5t-46.5 -31.5t-33.5 -46t-13 -69.5z" />
    <glyph glyph-name="g_i" unicode="gi" horiz-adv-x="1048" 
d="M364 337q111 0 185.5 -27.5t111.5 -69t37 -89.5t-37 -89.5t-111.5 -69t-185.5 -27.5q-99 0 -168.5 22t-110 56t-51.5 76t7 82t65 72.5t123 49.5q-16 7 -26.5 18.5t-10.5 31.5q0 11 5 19.5t13 16.5q-50 19 -79 49.5t-37 64.5t4.5 68t46.5 61.5t88.5 45t130.5 17.5
q74 0 127.5 -16.5t87.5 -43.5q18 24 41.5 42t50.5 30t56 18t58 6q33 0 62.5 -7.5t52 -21.5t36 -35.5t13.5 -48.5q0 -33 -21 -50t-46 -17q-23 0 -41.5 15t-18.5 47q0 12 6 22t12.5 18t11.5 14.5t2 11.5q-7 14 -25.5 20.5t-44.5 6.5q-23 0 -48.5 -5.5t-50 -16.5t-47.5 -27.5
t-39 -39.5q34 -37 36.5 -81t-26.5 -82.5t-90.5 -64t-154.5 -25.5q-73 0 -129 17q-7 -5 -13 -12.5t-6 -16.5q0 -12 7.5 -19t18 -11.5t22.5 -6.5t22 -2q18 2 37.5 3t40.5 1zM313 665q-59 -31 -82 -75t-16.5 -84t37.5 -68t80 -28q41 0 90 25q40 20 63 47t31.5 55.5t4 56
t-19.5 49t-40.5 34.5t-57.5 13q-41 0 -90 -25zM288 280q-50 -24 -79.5 -54.5t-40.5 -62.5t-5.5 -63t25 -55t51 -39t72.5 -15q26 0 55 7t61 22q50 23 79.5 53.5t40.5 62.5t5.5 63t-25 55t-51 39t-72.5 15q-26 0 -55 -6.5t-61 -21.5zM1018 492q-6 -2 -17.5 -5t-23 -9.5
t-20 -19t-8.5 -34.5v-348q0 -22 8.5 -34.5t20 -19t23 -9.5t17.5 -5q3 -3 3 -4v-4h-284v4q0 2 3 4q6 2 17.5 5t23 9.5t20 19t8.5 34.5v348q0 22 -8.5 34.5t-20 19t-23 9.5t-17.5 5q-3 0 -3 4v3h284v-3q0 -4 -3 -4z" />
    <glyph glyph-name="v_a" unicode="va" horiz-adv-x="1294" 
d="M9 692q-2 1 -2.5 4t-0.5 4h275v-4q0 -4 -3 -4q-6 -2 -14.5 -4.5t-16 -8.5t-11 -16.5t1.5 -28.5l207 -463l181 395q35 81 65.5 111.5t57.5 30.5t41.5 -14t17.5 -31.5t-5 -33.5t-26 -20q-15 -5 -30 -2.5t-31.5 1t-33 -12.5t-34.5 -44l-254 -551h-29l-280 631
q-8 16 -18.5 26.5t-21.5 17.5t-20.5 11t-15.5 6zM1275 50q-5 -10 -13 -21t-20 -20t-29.5 -14.5t-40.5 -5.5q-18 0 -39 4t-40 15.5t-33 33t-17 56.5q-26 -56 -76.5 -82.5t-106.5 -26.5q-37 0 -72 11.5t-62.5 33t-44 53.5t-16.5 74q0 58 27 91.5t68.5 55t89.5 37t90 37.5
t70.5 55.5t31.5 92.5q-1 28 -6 55.5t-17.5 49t-34.5 35t-57 13.5q-20 0 -39.5 -3t-36.5 -11l-10 22q42 17 85 17q123 0 190 -57.5t67 -161.5l-1 -423q0 -6 0.5 -14t2.5 -16t6.5 -13.5t13.5 -5.5q17 0 30 16t19 30zM810 167q0 -34 8 -58.5t21.5 -40.5t31.5 -24t37 -8
q24 0 48 11t43 32.5t31 53t12 71.5v227q-15 -33 -38 -53t-49 -35.5t-52 -28.5t-46.5 -31.5t-33.5 -46t-13 -69.5z" />
    <glyph glyph-name="w_a" unicode="wa" horiz-adv-x="1505" 
d="M9 692q-2 1 -2.5 4t-0.5 4h271v-4q0 -4 -3 -4q-6 -2 -16 -5t-17.5 -10t-9.5 -19.5t7 -33.5l-2 5l146 -420l133 420h40l153 -423l121 361q18 43 34.5 70t32 43t30 22t28.5 6q27 0 41.5 -14t17 -31.5t-5.5 -33.5t-26 -20q-14 -5 -28.5 -2t-30.5 3q-18 0 -36 -14t-34 -60
l-16 -44v1l-169 -493h-36l-155 417l-132 -417h-38l-219 627q-8 17 -19 28.5t-22 19t-21 11.5t-16 6zM1480 50q-5 -10 -12.5 -21t-19.5 -20t-29.5 -14.5t-40.5 -5.5q-18 0 -39 4t-40 15.5t-33 33t-17 56.5q-26 -56 -76.5 -82.5t-106.5 -26.5q-37 0 -72.5 11.5t-63 33
t-44 53.5t-16.5 74q0 43 16 72.5t42 50t59 34.5t68 26.5t69 27t61 35t44 50t19 73.5q-2 28 -7 55.5t-17.5 49t-34 35t-56.5 13.5q-20 0 -39.5 -3t-36.5 -11l-10 22q42 17 85 17q123 0 190 -57.5t67 -161.5l-1 -423q0 -6 0.5 -14t2.5 -16t6.5 -13.5t12.5 -5.5q17 0 30.5 16
t19.5 30zM1016 167q0 -34 8 -58.5t21.5 -40.5t31.5 -24t37 -8q24 0 48 11t43 32.5t31 53t12 71.5v227q-15 -33 -38 -53t-49 -35.5t-52 -28.5t-46.5 -31.5t-33.5 -46t-13 -69.5z" />
    <glyph glyph-name="v_i" unicode="vi" horiz-adv-x="987" 
d="M9 692q-2 1 -2.5 4t-0.5 4h275v-4q0 -4 -3 -4q-6 -2 -14.5 -4.5t-16 -8.5t-11 -16.5t1.5 -28.5l207 -463l181 395q21 46 44.5 76.5t46.5 49t43.5 26t37.5 7.5q37 0 54.5 -18t18.5 -39t-13 -39t-41 -18q-19 0 -38.5 8.5t-42.5 8.5q-22 0 -46.5 -18.5t-49.5 -73.5
l-246 -536h-29l-280 631q-8 16 -18.5 26.5t-21.5 17.5t-20.5 11t-15.5 6zM958 493q-6 -2 -17.5 -5t-23 -9.5t-20 -19t-8.5 -34.5v-349q0 -22 8.5 -34.5t20 -19t23 -9.5t17.5 -5q3 -3 3 -4v-4h-284v4q0 2 3 4q6 2 17.5 5t23 9.5t20 19t8.5 34.5v349q0 22 -8.5 34.5t-20 19
t-23 9.5t-17.5 5q-3 0 -3 4v3h284v-3q0 -4 -3 -4z" />
    <glyph glyph-name="w_i" unicode="wi" horiz-adv-x="1202" 
d="M9 692q-2 1 -2.5 4t-0.5 4h271v-4q0 -4 -3 -4q-6 -2 -16 -5t-17.5 -10t-9.5 -19.5t7 -33.5l-2 5l146 -420l133 420h40l154 -427l125 357q18 51 41.5 83.5t48.5 50.5t48 25t40 7q36 0 53.5 -18t19 -39t-12.5 -39t-41 -18q-20 0 -42.5 10t-46.5 10q-23 0 -45 -18t-41 -71
l-189 -542h-36l-155 417l-132 -417h-38l-219 627q-8 17 -19 28.5t-22 19t-21 11.5t-16 6zM1173 493q-6 -2 -18 -5t-23 -9.5t-19.5 -19t-8.5 -34.5v-349q0 -22 8.5 -34.5t20 -19t23 -9.5t17.5 -5q3 -3 3 -4v-4h-285v4q0 2 3 4q6 2 17.5 5t23 9.5t20 19t8.5 34.5v349
q0 22 -8.5 34.5t-20 19t-23 9.5t-17.5 5q-3 0 -3 4v3h284v-3.5t-2 -3.5z" />
    <glyph glyph-name="L_A" unicode="LA" horiz-adv-x="1390" 
d="M1379 9q2 -2 3 -4t1 -4h-275v4q0 2 3 4l15 5t16.5 9t11 17t-3.5 30l-45 100q-38 1 -75.5 10t-75 21.5t-75 28.5t-74.5 32l-76 -174q-6 -18 -2.5 -32t11 -23.5t16 -15.5t14.5 -8q3 -3 3 -4v-4h-161v4q0 2 3 4q6 2 18.5 10t26 19.5t26.5 27t21 32.5v-2l76 177
q-66 29 -129.5 50.5t-124.5 21.5q-23 0 -33 -14t-18 -31.5t-19.5 -31.5t-35.5 -14q-32 0 -44.5 20t-4.5 44.5t36.5 44.5t78.5 20q35 0 72 -8t75.5 -20.5t77.5 -29t78 -33.5l183 422h44l287 -644q7 -16 18 -26.5t21.5 -17.5t20 -11t15.5 -6zM238 79q0 -22 8 -32.5t19.5 -15
t22.5 -5t17 -0.5h83q37 0 74 24t67.5 55t52 61t29.5 43q0 3 4 3h3l-65 -212h-527v4q0 2 3 4q6 2 17.5 5t23 9.5t20 19t8.5 34.5v549q0 22 -8.5 34.5t-20 19t-23 9.5t-17.5 5q-3 0 -3 4v3h284v-3q0 -4 -3 -4q-6 -2 -17.5 -5t-23 -9.5t-20 -19t-8.5 -34.5v-546zM813 281
q72 -31 142.5 -57t139.5 -31l-162 364z" />
    <glyph glyph-name=".notdef" horiz-adv-x="500" 
 />
    <glyph glyph-name="uni0000" horiz-adv-x="0" 
 />
    <glyph glyph-name="uni0000" horiz-adv-x="0" 
 />
    <glyph glyph-name="uni000D" unicode="&#xd;" horiz-adv-x="250" 
 />
    <glyph glyph-name="space" unicode=" " horiz-adv-x="250" 
 />
    <glyph glyph-name="exclam" unicode="!" horiz-adv-x="246" 
d="M122 711q42 0 62 -24t13 -63l-62 -461h-24l-62 461q-7 39 13.5 63t59.5 24zM185 55q0 -26 -17.5 -44t-44.5 -18q-26 0 -43.5 18t-17.5 44t17.5 43.5t43.5 17.5q27 0 44.5 -17.5t17.5 -43.5z" />
    <glyph glyph-name="quotedbl" unicode="&#x22;" horiz-adv-x="314" 
d="M153 700l-102 -176h-26l22 176h106zM288 700l-102 -176h-26l22 176h106z" />
    <glyph glyph-name="numbersign" unicode="#" horiz-adv-x="535" 
d="M121 192l-51 -192h-27l52 192h-65v26h72l59 219h-73v25h80l50 186h26l-51 -186l222 -1l50 187h27l-51 -186h62v-25h-68l-60 -219h68v-26h-75l-51 -192h-26l52 192h-222zM128 218h221l59 219h-221z" />
    <glyph glyph-name="dollar" unicode="$" horiz-adv-x="552" 
d="M526 177q0 -47 -22 -82t-57.5 -58.5t-81 -35.5t-92.5 -13v-44h-26v45q-43 2 -83 14t-71 31.5t-49.5 46.5t-18.5 60q0 40 19 58t42 18q21 0 37.5 -13.5t16.5 -37.5q0 -14 -6.5 -24.5t-15 -18.5t-15 -14.5t-6.5 -13.5q0 -18 12.5 -33t33.5 -26t48 -17t56 -7v246
q-38 11 -76 25t-68.5 36t-49.5 55t-19 84q0 47 18 82t47.5 58.5t68 35.5t79.5 13v69h26v-69q37 -2 73.5 -14t65 -32t46 -46.5t17.5 -58.5q0 -38 -20.5 -55.5t-43.5 -17.5q-20 0 -36.5 13t-16.5 38q0 11 6 20.5t13.5 18.5t14 17t6.5 15q0 18 -10.5 32.5t-27.5 25t-39.5 16
t-47.5 5.5v-238q43 -12 87.5 -25.5t81.5 -36t60.5 -57.5t23.5 -90zM130 500q0 -23 9 -39.5t24.5 -29t37 -21.5t46.5 -17v230q-49 -7 -83 -39t-34 -84zM415 133q0 26 -11.5 44t-31 31.5t-45 23t-54.5 18.5v-237q28 1 54 9t45.5 22.5t31 36.5t11.5 52z" />
    <glyph glyph-name="percent" unicode="%" horiz-adv-x="555" 
d="M154 725q45 0 75 -21t45 -52t15 -67.5t-15 -67.5t-45 -52t-75 -21q-44 0 -74 21t-45 52t-15 67.5t15 67.5t44.5 52t74.5 21zM154 708q-21 0 -35.5 -18.5t-21.5 -45.5t-7 -59.5t7 -59.5t21.5 -45.5t35.5 -18.5q22 0 36.5 18.5t22 45.5t7.5 59.5t-7.5 59.5t-22 45.5
t-36.5 18.5zM513 700l-420 -700h-42l420 700h42zM397 264q45 0 75 -21t45 -52t15 -67.5t-15 -67.5t-45 -52t-75 -21q-44 0 -73.5 21t-44.5 52t-15 67.5t14.5 67.5t44 52t74.5 21zM398 247q-21 0 -35.5 -18.5t-21.5 -45.5t-7.5 -59.5t7 -59.5t21.5 -45.5t36 -18.5t36.5 18.5
t22 45.5t7.5 59.5t-7.5 59.5t-22 45.5t-36.5 18.5z" />
    <glyph glyph-name="ampersand" unicode="&#x26;" horiz-adv-x="778" 
d="M757 68q-14 -41 -52 -67t-83 -26q-32 0 -75 13t-84 56q-34 -29 -77 -45.5t-99 -16.5q-46 0 -90 12t-78.5 36t-55.5 60.5t-21 84.5q0 40 14 71.5t37 57t52 46t59 38.5q-34 55 -46 101t-8.5 83t20.5 65t42.5 46.5t56 27.5t61.5 9q28 0 54.5 -7.5t47 -23t32.5 -39t12 -54.5
q0 -27 -12.5 -49t-33 -40t-46.5 -34t-53 -32q18 -27 35 -49l162 -213q24 52 33 111q5 33 -4 47t-22 22t-24.5 16.5t-11.5 30.5t12.5 34.5t28.5 12.5q13 0 26 -8.5t21.5 -26t11 -45.5t-6.5 -67q-7 -38 -18 -77t-28 -74l21 -27q7 -10 20 -27t29 -33t33.5 -27.5t34.5 -11.5
q14 0 28 9t24 38zM176 195q0 -35 9 -67.5t26 -57t41.5 -39.5t56.5 -15q42 0 75.5 13t60.5 36l-202 266l-16 21q-23 -32 -37 -70.5t-14 -86.5zM269 607q0 -36 14 -73t34 -71q36 32 51.5 67t15.5 66q0 51 -19 75.5t-41 24.5q-21 0 -38 -22t-17 -67z" />
    <glyph glyph-name="quotesingle" unicode="'" horiz-adv-x="189" 
d="M158 700l-103 -176h-25l22 176h106z" />
    <glyph glyph-name="parenleft" unicode="(" horiz-adv-x="305" 
d="M265 701q-38 -35 -63 -92.5t-38 -127t-13 -145t12.5 -144.5t38 -127t63.5 -92l-12 -9q-71 35 -118 94t-70.5 130.5t-23.5 148.5t23.5 148.5t70.5 130.5t118 94l12 -9v0z" />
    <glyph glyph-name="parenright" unicode=")" horiz-adv-x="305" 
d="M52 710q71 -35 118 -94t70.5 -130.5t23.5 -148.5t-23.5 -148.5t-70.5 -130.5t-118 -94l-12 9q38 34 63.5 92t38 127t12.5 144.5t-13 145t-38 127t-63 92.5l12 9v0z" />
    <glyph glyph-name="asterisk" unicode="*" horiz-adv-x="254" 
d="M207 551l-37 -28l-44 79l-42 -77l-37 27l57 62l-85 11l13 45l80 -36l-10 73h47l-8 -72l80 36l14 -44l-87 -12z" />
    <glyph glyph-name="plus" unicode="+" horiz-adv-x="400" 
d="M220 327v-167h-38v167h-162v37h162v165h38v-165h160v-37h-160z" />
    <glyph glyph-name="comma" unicode="," horiz-adv-x="210" 
d="M185 107l-145 -177h-26l57 177h114z" />
    <glyph glyph-name="hyphen" unicode="-" horiz-adv-x="350" 
d="M330 316v-38h-310v38h310z" />
    <glyph glyph-name="period" unicode="." horiz-adv-x="185" 
d="M155 53q0 -26 -18 -44.5t-44 -18.5t-44 18.5t-18 44.5t18 43.5t44 17.5t44 -17.5t18 -43.5z" />
    <glyph glyph-name="slash" unicode="/" horiz-adv-x="429" 
d="M409 700l-347 -700h-42l347 700h42z" />
    <glyph glyph-name="zero" unicode="0" horiz-adv-x="656" 
d="M621 350q0 -82 -21 -149.5t-59 -115.5t-92 -74t-120 -26t-120.5 26t-93 74t-59.5 115.5t-21 149.5t21 149.5t59.5 115.5t93 74t120.5 26t120 -26t92 -74t59 -115.5t21 -149.5zM177 350q0 -85 13 -148.5t34.5 -106t48.5 -64t56 -21.5q28 0 55.5 21.5t49 64t34.5 106
t13 148.5t-13 149t-34.5 106.5t-49 64t-55.5 21.5q-29 0 -56 -21.5t-48.5 -64t-34.5 -106.5t-13 -149z" />
    <glyph glyph-name="one" unicode="1" horiz-adv-x="337" 
d="M47 572q16 0 44.5 21t55.5 47q32 30 67 68h24v-632q0 -22 8.5 -34.5t20.5 -19t23.5 -9.5t17.5 -5q3 -3 3 -4v-4h-285v4q0 2 3 4q6 2 17.5 5t23 9.5t20 19t8.5 34.5v488h-54v4q0 4 3 4z" />
    <glyph glyph-name="two" unicode="2" horiz-adv-x="521" 
d="M474 512q0 -69 -27 -117t-67.5 -84.5t-89 -66t-91.5 -60.5t-74 -68.5t-37 -89.5h191q34 0 66.5 19.5t59.5 46t46 52.5t27 39q0 3 4 3h3l-54 -186h-410v26q0 74 16.5 127.5t43.5 93t60.5 67.5t69 50t69.5 41t60.5 40.5t42.5 48t16 64.5q0 34 -13 59t-34 41t-47.5 23.5
t-53.5 7.5q-25 0 -48 -6t-41 -17t-29 -27t-11 -35q0 -7 6.5 -14t14 -15t14 -17.5t6.5 -21.5q0 -22 -17 -35t-38 -13q-22 0 -40 16.5t-18 53.5q0 36 17 64.5t45.5 48t65 30t74.5 10.5q41 0 80.5 -12t71 -36.5t51 -62t19.5 -88.5z" />
    <glyph glyph-name="three" unicode="3" horiz-adv-x="560" 
d="M524 192q0 -47 -21.5 -85t-59.5 -65t-89 -42t-110 -15q-42 0 -83 10.5t-73.5 30t-52 48t-19.5 64.5q0 37 18.5 53.5t39.5 16.5q20 0 36.5 -13.5t16.5 -36.5q0 -9 -5 -17.5t-11 -16.5t-11 -15.5t-5 -14.5q0 -18 11 -33.5t29 -26.5t41 -17.5t47 -6.5q53 0 88 28t52 70
t16.5 90t-17.5 89t-50.5 66.5t-83.5 21.5v26q40 -2 67.5 18.5t41.5 52.5t15 70t-11.5 70.5t-39.5 54t-68 21.5q-27 0 -49.5 -7t-39 -19t-25.5 -27.5t-9 -31.5q0 -7 6 -14.5t12.5 -15t12.5 -16t6 -17.5q0 -22 -16 -34.5t-36 -12.5q-21 0 -39.5 16.5t-18.5 51.5q0 36 20 64
t52 47.5t73.5 30t83.5 10.5q40 0 78.5 -10t69 -30t49.5 -52t19 -75q0 -62 -41 -103.5t-110 -55.5q89 -15 141 -66t52 -129z" />
    <glyph glyph-name="four" unicode="4" horiz-adv-x="544" 
d="M302 548l-201 -271h201v271zM503 193h-61v-117q0 -22 8.5 -34.5t20.5 -19t23.5 -9.5t17.5 -5q3 -3 3 -4v-4h-285v4q0 2 3 4q6 2 17.5 5t23 9.5t20 19t8.5 34.5v117h-283v20l364 487h59v-423h3q22 0 35.5 3t21.5 8.5t12 11.5t6 12q0 3 4 3h4z" />
    <glyph glyph-name="five" unicode="5" horiz-adv-x="519" 
d="M426 522q-2 6 -5 19.5t-9.5 27t-19.5 23.5t-35 10h-252l-20 -212q31 12 74 21.5t77 8.5q52 -1 98 -14.5t80 -39t53.5 -63.5t19.5 -88q0 -59 -22.5 -102.5t-58.5 -71.5t-82 -41.5t-92 -13.5q-41 0 -79.5 10.5t-68.5 31t-48 50.5t-18 69t18 56.5t40 17.5q20 0 35.5 -13.5
t15.5 -36.5q0 -14 -8 -23.5t-17 -17.5t-17 -15t-8 -16q0 -17 10.5 -33t27.5 -28t39 -19t45 -7q51 0 84.5 28t50.5 70t17.5 91.5t-14 91.5t-44 70t-72.5 28q-33 0 -59 -6.5t-44 -14.5q-21 -9 -37 -20h-31l44 350h340v-181q-2 0 -4 1q-4 0 -4 2z" />
    <glyph glyph-name="six" unicode="6" horiz-adv-x="579" 
d="M300 451q84 0 140 -34.5t83 -86.5t26 -112t-30 -112t-86 -86.5t-141 -34.5q-57 0 -103.5 16.5t-79.5 47.5t-51 74.5t-18 96.5v255q1 54 20 98t52 74.5t79 47.5t102 17q34 0 70 -10.5t65 -30t48 -47.5t19 -63q0 -37 -19 -53.5t-42 -16.5q-21 0 -37.5 12.5t-16.5 35.5
q0 13 7.5 22.5t16.5 17t16.5 13.5t7.5 13q0 16 -10 31t-26.5 26.5t-38.5 18.5t-45 7q-39 0 -64 -19.5t-39.5 -50.5t-20 -70.5t-5.5 -79.5v-104q19 39 47.5 63t73.5 24zM182 221q0 -48 9 -87t24.5 -66.5t36.5 -43t45 -15.5q36 0 60.5 31t36.5 77.5t12 100.5t-12 100.5
t-36.5 77.5t-60.5 31q-26 0 -47.5 -15t-36.5 -42t-23 -65t-8 -84z" />
    <glyph glyph-name="seven" unicode="7" horiz-adv-x="510" 
d="M27 525q-2 -3 -4 -3h-4l18 178h449v-30q-35 -84 -75.5 -157t-76 -149t-61 -164t-29.5 -202h-151q13 102 49 183t83.5 151t99.5 134.5t98 134.5h-303q-22 0 -38.5 -9.5t-27.5 -22.5t-18 -25.5t-9 -18.5z" />
    <glyph glyph-name="eight" unicode="8" horiz-adv-x="619" 
d="M585 192q0 -47 -20 -85t-56 -65t-86.5 -42t-112.5 -15t-113 15t-87 42t-56 65t-20 85q0 77 52.5 128t142.5 68q-70 15 -110.5 56.5t-40.5 101.5q0 38 16.5 69t47 53.5t73 34.5t95.5 12q52 0 94.5 -12t73 -34.5t47 -53.5t16.5 -69q0 -60 -40.5 -101.5t-110.5 -56.5
q90 -17 142.5 -68t52.5 -128zM309 691q-35 0 -58.5 -21.5t-35.5 -53.5t-11.5 -70t12.5 -70t35 -53.5t58 -21.5t58 21.5t34.5 53.5t12 70t-11 70t-35 53.5t-58.5 21.5zM309 375q-45 0 -75 -27t-45 -67.5t-15 -88t15 -88t45 -67.5t75 -27t75 27t45 67.5t15 88t-15 88t-45 67.5
t-75 27z" />
    <glyph glyph-name="nine" unicode="9" horiz-adv-x="571" 
d="M531 222q-2 -57 -22.5 -101t-55.5 -74.5t-83 -46t-103 -15.5q-35 0 -72.5 10.5t-69.5 30t-52.5 47.5t-20.5 63q0 37 20.5 54t43.5 17q21 0 37.5 -13t16.5 -38q0 -14 -6.5 -24t-14.5 -17.5t-14.5 -14t-6.5 -13.5q0 -16 11 -30t29.5 -24.5t42 -16.5t49.5 -6q43 0 69 20.5
t39.5 52t18 68.5t4.5 71v107q-20 -38 -48 -60.5t-69 -22.5q-83 0 -138.5 34.5t-83 86.5t-27.5 112t27.5 112t83 86.5t138.5 34.5q54 0 101 -17t81.5 -47.5t54.5 -74t20 -96.5v-255zM274 688q-36 0 -60.5 -31t-36.5 -77.5t-12.5 -100.5t12 -100.5t36.5 -77.5t61 -31
q26 0 47 15t36 42t23 65t8 84q0 97 -30.5 154.5t-83.5 57.5z" />
    <glyph glyph-name="colon" unicode=":" horiz-adv-x="189" 
d="M155 471q0 -26 -17.5 -43.5t-43.5 -17.5t-43.5 17.5t-17.5 43.5t17.5 43.5t43.5 17.5t43.5 -17.5t17.5 -43.5zM157 53q0 -26 -17.5 -44t-43.5 -18t-43.5 18t-17.5 44t17.5 43t43.5 17t43.5 -17t17.5 -43z" />
    <glyph glyph-name="semicolon" unicode=";" horiz-adv-x="226" 
d="M175 460q0 -26 -17.5 -43.5t-44.5 -17.5q-26 0 -43 17.5t-17 43.5t17 44t43 18q27 0 44.5 -18t17.5 -44zM196 105l-144 -175h-26l56 175h114z" />
    <glyph glyph-name="less" unicode="&#x3c;" horiz-adv-x="261" 
d="M241 232v-64l-221 160v23l221 160v-63l-200 -108z" />
    <glyph glyph-name="equal" unicode="=" horiz-adv-x="400" 
d="M380 407v-37h-360v37h360zM380 298v-38h-360v38h360z" />
    <glyph glyph-name="greater" unicode="&#x3e;" horiz-adv-x="261" 
d="M241 328l-221 -160v63l200 109l-200 109v62l221 -160v-23z" />
    <glyph glyph-name="question" unicode="?" horiz-adv-x="464" 
d="M431 525q0 -52 -18.5 -86.5t-45.5 -59.5t-59 -45t-58.5 -43t-44 -53.5t-15.5 -75.5h-29q-8 85 2 139t30.5 89.5t46.5 56.5t48.5 39.5t38.5 39.5t16 56q0 29 -10 49.5t-26 34t-36.5 20t-41.5 6.5q-22 0 -43.5 -6t-38 -17.5t-26.5 -28t-10 -36.5q0 -7 6.5 -14t14 -15
t14 -17.5t6.5 -21.5q0 -22 -17 -35t-37 -13q-22 0 -40 16.5t-18 53.5t16 65.5t42.5 47.5t60.5 29t70 10q37 0 73.5 -11t65 -34t46 -58t17.5 -82zM238 55q0 -26 -17.5 -44t-43.5 -18q-27 0 -44.5 18t-17.5 44t17.5 43.5t44.5 17.5q26 0 43.5 -17.5t17.5 -43.5z" />
    <glyph glyph-name="at" unicode="@" horiz-adv-x="724" 
d="M620 120q0 -42 -29 -69.5t-69.5 -44t-83 -23.5t-69.5 -7q-83 0 -145 28.5t-103 75t-62 106t-21 122t21 122t62 106t103 75t145 28.5q93 0 157.5 -34.5t103 -87t52 -113t3.5 -113t-42 -87t-84 -34.5q-54 0 -79 26.5t-35 64.5q-6 -22 -15 -41.5t-23 -34.5t-32.5 -24
t-43.5 -9q-45 0 -73.5 25t-41.5 62t-11 81t18.5 81t46.5 62t74 25q29 0 53.5 -12t39.5 -33v35h56v-98q0 -28 -0.5 -61t4.5 -61.5t19 -47.5t43 -19q28 0 47.5 31.5t25 79t-4 103t-40 103t-84 79t-134.5 31.5q-66 0 -115.5 -26.5t-82.5 -70.5t-49.5 -99.5t-16.5 -114
t16.5 -114t49.5 -99.5t82.5 -70.5t115.5 -26.5q32 0 66.5 7t63.5 18.5t47.5 26.5t18.5 31q0 8 -4.5 19.5t-4.5 21.5q0 16 9.5 23.5t21.5 7.5t22.5 -8t10.5 -24zM344 468q-26 0 -42 -22t-24.5 -55t-8.5 -71t7 -71t21 -55t35 -22q34 0 55 21.5t32 52.5t14.5 65.5t3.5 60.5v10
q-2 38 -28.5 62t-64.5 24z" />
    <glyph glyph-name="A" unicode="A" horiz-adv-x="785" 
d="M775 8q2 -2 3 -4t1 -4h-275v4q0 2 3 4l15 5t16.5 9t10.5 17t-4 30l-69 155q-8 -25 -31.5 -35.5t-56.5 -14t-70.5 -4.5t-73 -5.5t-65 -17t-45.5 -39.5l-9 -21q-6 -18 -2.5 -32t10.5 -23.5t15.5 -15.5t14.5 -8q3 -3 3 -4v-4h-160v4q0 2 3 4q6 2 18.5 10t26 19.5t26.5 27
t21 32.5l-1 -2l269 618h44l286 -644q8 -16 18.5 -26.5t21.5 -17.5t20.5 -11t15.5 -6zM328 556l-170 -393q26 15 58 21t65 8t64.5 3t56 5.5t39.5 15t15 31.5q0 11 -2.5 21.5t-6.5 20.5z" />
    <glyph glyph-name="B" unicode="B" horiz-adv-x="671" 
d="M29 693q-3 0 -3 4v3h212q52 0 110.5 -6t107.5 -24.5t81 -54t32 -95.5q0 -35 -13.5 -61.5t-36.5 -46t-53.5 -32.5t-63.5 -22q43 -5 85 -15.5t74.5 -31t52.5 -52t20 -77.5q0 -41 -17 -70.5t-44.5 -49.5t-63.5 -32.5t-74 -19t-75 -8.5t-67 -2h-267v4q0 2 3 4q6 2 17.5 5
t23 9.5t20 19t8.5 34.5v549q0 22 -8.5 34.5t-20 19t-23 9.5t-17.5 5zM425 522q0 41 -14.5 70t-39.5 47.5t-59 27t-74 8.5v-311q36 0 69.5 9.5t60 28.5t42 49t15.5 71zM253 339q-4 0 -7.5 -0.5t-7.5 -0.5v-255q0 -20 7 -31.5t17 -17t21 -7t18 -1.5q34 0 67.5 9.5t60 29
t42.5 49.5t16 71q0 40 -15 69.5t-40.5 48.5t-60 27.5t-72.5 8.5h-46z" />
    <glyph glyph-name="C" unicode="C" horiz-adv-x="666" 
d="M637 102q-17 -27 -42.5 -48.5t-56.5 -36.5t-66 -23.5t-71 -8.5q-90 0 -157.5 31.5t-113 83t-68 117t-22.5 133.5q0 97 33 166t85.5 113.5t117 65t127.5 20.5q46 0 87 -11.5t71 -32.5t47.5 -50.5t17.5 -65.5q0 -42 -21.5 -61t-46.5 -19q-23 0 -40.5 13.5t-17.5 37.5
q0 18 8.5 29t19 18.5t19.5 14.5t9 17q0 36 -39 61t-109 25q-69 0 -115.5 -28.5t-73.5 -75t-35.5 -106t-1 -121.5t30.5 -121.5t58.5 -106t82.5 -75t103 -28.5q45 0 90 20.5t82 61.5l8 -9v0z" />
    <glyph glyph-name="D" unicode="D" horiz-adv-x="721" 
d="M29 693q-3 0 -3 4v3h299q75 -1 140.5 -28t114 -73.5t77 -110t28.5 -138.5t-28.5 -138.5t-77 -110t-114 -73.5t-140.5 -28h-299v4q0 2 3 4q6 2 17.5 5t23 9.5t20 19t8.5 34.5v549q0 22 -8.5 34.5t-20 19t-23 9.5t-17.5 5zM538 350q0 64 -15.5 122.5t-44 103.5t-68.5 72
t-90 27h-82v-592q0 -22 8.5 -33.5t20 -17t23 -6t17.5 -0.5h13q50 0 90 26.5t68.5 71.5t44 103.5t15.5 122.5z" />
    <glyph glyph-name="E" unicode="E" horiz-adv-x="624" 
d="M457 464q0 3 4 3h4v-233h-4q-4 0 -4 3q-2 10 -8 27t-16.5 33.5t-26 28.5t-37.5 12h-130v-262q0 -22 8.5 -32.5t20 -14t23 -3.5h17.5h78q27 0 53.5 12.5t50.5 31.5t45.5 41.5t37.5 42.5t26 35.5t12 19.5q0 3 4 3h3l-65 -212h-526v4q0 2 3 4q6 2 17.5 5t23 9.5t20 19
t8.5 34.5v549q0 22 -8.5 34.5t-20 19t-23 9.5t-17.5 5q-3 0 -3 4v3h513v-166q-2 0 -4 1q-4 0 -4 2q-2 6 -10 28.5t-23.5 47t-39 43.5t-56.5 19h-164v-311h130h4q21 1 35.5 13t24.5 28t16 32.5t8 26.5z" />
    <glyph glyph-name="F" unicode="F" horiz-adv-x="570" 
d="M463 202q-2 10 -8 27t-17 33.5t-26.5 28.5t-37.5 12h-136v-227q0 -22 8.5 -34.5t20 -19t23 -9.5t17.5 -5q3 -3 3 -4v-4h-284v4q0 2 3 4q6 2 17.5 5t23 9.5t20 19t8.5 34.5v549q0 22 -8.5 34.5t-20 19t-23 9.5t-17.5 5q-3 0 -3 4v3h524v-166q-2 0 -4 1q-4 0 -4 2
q-5 18 -15.5 41.5t-26.5 45t-37.5 36.5t-49.5 15h-175v-346h140q21 1 36 13t25 28t16 32t8 26q0 1 4 3q2 0 3 1v-233h-3q-4 0 -4 3z" />
    <glyph glyph-name="G" unicode="G" horiz-adv-x="731" 
d="M457 380q-3 0 -3 4v4h264v-4q0 -4 -2 -4q-6 -2 -17.5 -5t-23.5 -9.5t-20.5 -19t-8.5 -34.5v-324q-4 0 -8 1q-7 2 -7 9q1 17 -11 22.5t-28 5.5q-14 0 -27 -2.5t-23 -4.5q-65 -34 -141 -34q-90 0 -157.5 31.5t-113 83t-68 117t-22.5 133.5q0 97 33 166t85.5 113.5t117 65
t127.5 20.5q46 0 87 -11.5t71 -32.5t47.5 -50.5t17.5 -65.5q0 -42 -21.5 -61t-46.5 -19q-23 0 -40.5 13.5t-17.5 37.5q0 18 8.5 29t19 18.5t19.5 14.5t9 17q0 36 -39 61t-109 25q-69 0 -116 -28.5t-74.5 -75.5t-36.5 -107t-1.5 -123t30 -123t58.5 -107t83.5 -75.5
t105.5 -28.5q17 0 34 3t34 10l1 279q-1 21 -9.5 32.5t-20 18t-22.5 9.5t-17 5z" />
    <glyph glyph-name="H" unicode="H" horiz-adv-x="770" 
d="M460 0v4q0 2 3 4q6 2 17.5 5t23 9.5t20 19t8.5 34.5v311q-17 -27 -45.5 -38t-69.5 -11q-18 0 -44.5 1.5t-43.5 1.5q-24 0 -41.5 -5t-28 -18t-16 -34t-5.5 -54v-154q0 -22 8.5 -34.5t20 -19t23 -9.5t17.5 -5q3 -3 3 -4v-4h-284v4q0 2 3 4q6 2 17.5 5t23 9.5t20 19
t8.5 34.5v549q0 22 -8.5 34.5t-20 19t-23 9.5t-17.5 5q-3 0 -3 4v3h284v-3q0 -4 -3 -4q-6 -2 -17.5 -5t-23 -9.5t-20 -19t-8.5 -34.5v-293q14 19 37 26t54 7q18 0 44 -1t44 -1q29 0 50.5 6t35.5 21t21 42t7 69h1v124q0 22 -8.5 34.5t-20 19t-23 9.5t-17.5 5q-3 0 -3 4v3h283
v-3q0 -4 -2 -4q-6 -2 -17.5 -5t-23.5 -9.5t-20.5 -19t-8.5 -34.5v-549q0 -22 8.5 -34.5t20.5 -19t23.5 -9.5t17.5 -5q2 -2 2 -4v-4h-283z" />
    <glyph glyph-name="I" unicode="I" horiz-adv-x="337" 
d="M307 693q-6 -2 -17.5 -5t-23 -9.5t-20 -19t-8.5 -34.5v-549q0 -22 8.5 -34.5t20 -19t23 -9.5t17.5 -5q3 -3 3 -4v-4h-284v4q0 2 3 4q6 2 17.5 5t23 9.5t20 19t8.5 34.5v549q0 22 -8.5 34.5t-20 19t-23 9.5t-17.5 5q-3 0 -3 4v3h284v-3q0 -4 -3 -4z" />
    <glyph glyph-name="J" unicode="J" horiz-adv-x="541" 
d="M448 214q0 -60 -20 -103.5t-52.5 -72t-73.5 -42t-82 -13.5q-37 0 -71 10.5t-60.5 30t-42.5 48.5t-16 67q0 45 18.5 63.5t39.5 18.5q19 0 34 -12.5t15 -33.5q0 -17 -9 -27t-19.5 -17t-19.5 -14.5t-9 -20.5q0 -16 9.5 -30.5t24.5 -25t34.5 -16.5t40.5 -6q22 0 43 8t38 26.5
t27.5 48t10.5 72.5l-1 452q0 22 -8.5 34.5t-20 19t-23 9.5t-17.5 5q-3 0 -3 4v3h285v-3q0 -4 -3 -4q-6 -2 -17.5 -5t-22.5 -9t-20 -17.5t-10 -31.5l1 -383v-33v0z" />
    <glyph glyph-name="K" unicode="K" horiz-adv-x="729" 
d="M633 -11q-70 0 -114 30t-71 75t-42 98t-27.5 99.5t-26.5 78.5t-39 36l-75 -91v-239q0 -22 8.5 -34.5t20 -19t23 -9.5t17.5 -5q3 -3 3 -4v-4h-284v4q0 2 3 4q6 2 17.5 5t23 9.5t20 19t8.5 34.5v549q0 22 -8.5 34.5t-20 19t-23 9.5t-17.5 5q-3 0 -3 4v3h284v-3q0 -4 -3 -4
q-6 -2 -17.5 -5t-23 -9.5t-20 -19t-8.5 -34.5v-269l207 252q21 29 16.5 54.5t-25.5 30.5q-3 0 -3 4v3h177v-3q0 -4 -2 -4q-8 -3 -22 -8t-32 -15t-38.5 -26t-42.5 -42l-143 -175q67 -4 110.5 -36t72 -77.5t45 -98t29.5 -97t26 -74t35 -29.5q21 0 34 11.5t19 30.5l21 -9
q-9 -27 -31 -43t-58 -16z" />
    <glyph glyph-name="L" unicode="L" horiz-adv-x="624" 
d="M238 79q0 -22 8 -32.5t19.5 -15t22.5 -5t17 -0.5h83q37 0 74 24t67.5 55t52 61t29.5 43q0 3 4 3h3l-65 -212h-527v4q0 2 3 4q6 2 17.5 5t23 9.5t20 19t8.5 34.5v549q0 22 -8.5 34.5t-20 19t-23 9.5t-17.5 5q-3 0 -3 4v3h284v-3q0 -4 -3 -4q-6 -2 -17.5 -5t-23 -9.5
t-20 -19t-8.5 -34.5v-546v0z" />
    <glyph glyph-name="M" unicode="M" horiz-adv-x="943" 
d="M650 8q6 2 16.5 4t21 7t18.5 15.5t8 29.5l-51 486l-228 -550h-33q4 76 -6.5 135t-30 106.5t-46 87t-53 77t-51.5 75.5t-42 83l-49 -477q-1 -20 6 -34t18 -23t23 -14.5t21 -7.5q2 -2 2 -4v-4h-185q-1 2 0 4q0 2 4 4q8 2 21 7.5t26 15t23.5 24t14.5 35.5l56 537
q1 20 -4.5 32t-14 19t-17.5 10l-15 5q-1 0 -3 4q-1 2 -1 3h177q9 -49 29 -88.5t44 -74t50 -67.5t48 -68t38 -75t20 -90l193 463h153v-3.5t-2 -3.5q-6 -2 -14.5 -5t-17 -10t-14.5 -18.5t-6 -29.5l58 -561q3 -21 13 -32t22 -17t23.5 -8t17.5 -4q3 -3 3 -4v-4h-287v4q0 2 3 4z
" />
    <glyph glyph-name="N" unicode="N" horiz-adv-x="742" 
d="M608 0q-27 60 -64.5 108.5t-80.5 91t-89 81.5t-90 80.5t-84.5 88.5t-71.5 105v-458q0 -22 9.5 -37.5t22.5 -26.5t25.5 -17t18.5 -8q3 -3 3 -4v-4h-184v4q0 2 3 4q6 2 18.5 8t25.5 17t22.5 26.5t9.5 37.5v500q0 28 -8.5 45.5t-20 28t-23 15.5t-17.5 7q-3 0 -3 4v3h172
q24 -59 57.5 -105t72 -85t79 -72.5t78.5 -66.5t70.5 -68t54.5 -77v377q0 22 -10 38t-22.5 26.5t-25.5 17t-19 8.5q-3 0 -3 4v3h185v-3q0 -4 -3 -4q-6 -2 -18.5 -8.5t-25.5 -17t-22.5 -26.5t-9.5 -38v-603h-32v0z" />
    <glyph glyph-name="O" unicode="O" 
d="M762 350q0 -68 -22.5 -133.5t-67.5 -117t-113 -83t-158 -31.5t-157.5 31.5t-113 83t-68 117t-22.5 133.5q0 69 22.5 134.5t68 116.5t113 82.5t157.5 31.5t158 -31.5t113 -82.5t67.5 -116.5t22.5 -134.5zM204 266q14 -51 36 -97.5t51 -81t63.5 -55t73.5 -20.5q31 0 61 13
q49 21 78.5 64.5t42 100t9 120t-19.5 124.5q-14 51 -36.5 97.5t-51.5 81t-64 55t-74 20.5q-30 0 -60 -13q-50 -21 -79.5 -64.5t-41.5 -100t-8.5 -120t20.5 -124.5z" />
    <glyph glyph-name="P" unicode="P" horiz-adv-x="625" 
d="M238 675v-390h60q49 0 81.5 29t48.5 72t16 94t-16 94t-48.5 72t-81.5 29h-60zM590 480q0 -42 -16 -81.5t-48.5 -70.5t-81 -50t-112.5 -19h-94v-183q0 -22 8.5 -34.5t20 -19t23 -9.5t17.5 -5q3 -3 3 -4v-4h-284v4q0 2 3 4q6 2 17.5 5t23 9.5t20 19t8.5 34.5v548
q0 22 -8.5 34.5t-20 19t-23 9.5t-17.5 5q-3 0 -3 4v4h306q64 0 112.5 -19t81 -50t48.5 -70.5t16 -80.5z" />
    <glyph glyph-name="Q" unicode="Q" 
d="M770 -12q29 0 42 -17.5t10.5 -38t-20.5 -38t-52 -17.5q-32 0 -63 10.5t-61.5 28t-59.5 39t-57 44.5q-51 -14 -108 -14q-90 0 -157.5 31.5t-113 83t-68 117t-22.5 133.5q0 69 22.5 134.5t68 116.5t113 82.5t157.5 31.5t158 -31.5t113 -82.5t67.5 -116.5t22.5 -134.5
q0 -54 -14 -107t-42.5 -98.5t-71 -81.5t-98.5 -56q38 -30 76.5 -52.5t79.5 -22.5q17 0 25.5 8.5t14.5 19t13.5 19.5t24.5 9zM327 130q22 0 44.5 -8.5t44.5 -22t44 -31t44 -35.5q44 24 70.5 67.5t37 98.5t7 115.5t-19.5 119.5q-14 51 -36.5 97.5t-51.5 81t-64 55t-74 20.5
q-30 0 -60 -13q-50 -21 -79.5 -64.5t-41.5 -100t-8.5 -120t20.5 -124.5q23 -88 69 -154q11 8 24.5 13t29.5 5zM287 93q29 -37 64.5 -59t76.5 -22q26 0 52 10q-42 35 -80.5 60t-72.5 25q-12 0 -22 -4t-18 -10z" />
    <glyph glyph-name="R" unicode="R" horiz-adv-x="710" 
d="M239 675v-326h41q50 0 83.5 24t50 60.5t16.5 78.5t-16.5 78.5t-50 60.5t-83.5 24h-41zM608 -11q-67 0 -110.5 23t-71.5 58.5t-44.5 77t-30.5 79t-30 64.5t-42 33h-40v-248q0 -22 8.5 -34.5t20.5 -19t23.5 -9.5t17.5 -5q3 -3 3 -4v-4h-286v4q0 2 3 4q6 2 17.5 5t23 9.5
t20 19t8.5 34.5v549q0 22 -8.5 34.5t-20 19t-23 9.5t-17.5 5q-3 0 -3 4v3h289q80 0 136 -24.5t86 -62t36 -82.5t-13.5 -86t-64.5 -73t-114 -43q47 -17 78 -46.5t51.5 -64.5t34.5 -71t25.5 -66t24.5 -48.5t33 -18.5q21 0 34.5 12t19.5 31l21 -9q-8 -27 -30.5 -43t-64.5 -16z
" />
    <glyph glyph-name="S" unicode="S" horiz-adv-x="570" 
d="M535 177q0 -48 -22.5 -83.5t-59 -59t-83.5 -35t-95 -11.5q-45 0 -88.5 11t-77.5 31t-54.5 48t-20.5 63q0 40 19 58t42 18q21 0 37.5 -13.5t16.5 -37.5q0 -14 -6.5 -24.5t-15 -18.5t-15 -14.5t-6.5 -13.5q0 -19 12.5 -34t34 -25.5t50.5 -16.5t61 -6q30 0 58.5 6t51 20
t36.5 37t14 57q0 42 -28 69.5t-70.5 50t-92 44t-92 51t-70.5 71t-28 103.5q0 48 19 84t50 59.5t71.5 35t82.5 11.5q39 0 78 -11t70 -31t50.5 -48t19.5 -61q0 -38 -20.5 -56t-43.5 -18q-20 0 -36.5 13t-16.5 38q0 11 6 20.5t13.5 18.5t14 17t6.5 15q0 19 -10 34t-27.5 25
t-40.5 15t-48 5q-26 0 -52 -7.5t-46 -22.5t-32.5 -38.5t-12.5 -55.5q0 -41 29.5 -68.5t73.5 -49.5t95.5 -43.5t95.5 -51t73.5 -71t29.5 -103.5z" />
    <glyph glyph-name="T" unicode="T" horiz-adv-x="655" 
d="M642 525q-2 10 -18.5 35.5t-41 51t-55.5 45.5t-63 20h-66v-601q0 -22 8.5 -34.5t20 -19t23 -9.5t17.5 -5q3 -3 3 -4v-4h-284v4q0 2 3 4q6 2 17.5 5t23 9.5t20 19t8.5 34.5v601h-65q-33 0 -64 -20t-56 -45.5t-41 -51t-18 -35.5q-2 -2 -4 -2q-2 -1 -4 -1l33 178h578
l32 -178q-1 0 -3 1q-4 0 -4 2z" />
    <glyph glyph-name="U" unicode="U" horiz-adv-x="723" 
d="M534 693q-3 0 -3 4v3h170v-3q0 -4 -3 -4q-6 -2 -17.5 -5t-23.5 -9.5t-20.5 -19t-8.5 -34.5v-375q0 -69 -22.5 -120t-59.5 -85t-84.5 -51t-96.5 -17q-50 0 -98.5 17.5t-86.5 51.5t-61 85t-23 119v375q0 22 -8.5 34.5t-20 19t-23 9.5t-17.5 5q-3 0 -3 4v3h284v-3
q0 -4 -3 -4q-6 -2 -17.5 -5t-23 -9.5t-20 -19t-8.5 -34.5v-375q0 -59 15 -102t39.5 -71.5t56.5 -42.5t65 -14q35 0 69.5 15t61.5 44t43.5 72t16.5 99v375q0 22 -8.5 34.5t-20 19t-23 9.5t-17.5 5z" />
    <glyph glyph-name="V" unicode="V" horiz-adv-x="777" 
d="M769 700q1 -2 1 -4q0 -4 -1 -4q-6 -2 -18 -8t-26 -16.5t-28 -25t-24 -34.5l-270 -608h-38l-280 631q-8 16 -18.5 26.5t-21.5 17.5t-20.5 11t-15.5 6q-2 1 -2.5 4t-0.5 4h275v-4q0 -4 -3 -4q-6 -2 -14.5 -4.5t-16 -8.5t-11 -16t1.5 -28l209 -471l199 446q6 19 2 33.5
t-13 24.5t-19 16t-16 8q-2 0 -2 4q-1 2 -1 4h172z" />
    <glyph glyph-name="W" unicode="W" horiz-adv-x="987" 
d="M797 692q-3 0 -3 4v4h187v-4q0 -4 -3 -4q-6 -2 -18.5 -8t-27 -15.5t-28.5 -23.5t-23 -32l-214 -613h-36l-155 417l-132 -417h-38l-219 627q-8 17 -19 28.5t-22 19t-21 11.5t-16 6q-2 1 -2.5 4t-0.5 4h271v-4q0 -4 -3 -4q-6 -2 -16 -5t-17.5 -10t-9.5 -19.5t7 -33.5l-2 5
l146 -420l133 420h40l155 -428l142 408q5 20 -0.5 35t-16 24.5t-21.5 15.5t-17 8z" />
    <glyph glyph-name="X" unicode="X" horiz-adv-x="704" 
d="M189 8q3 -3 3 -4v-4h-185q0 1 0.5 4t2.5 4q6 2 20 6.5t32 13.5t37 23t34 36l164 231l-182 305q-14 22 -27 35t-24 19.5t-20.5 9.5t-15.5 5q-2 1 -3 4t0 4h278v-4q0 -4 -3 -4q-6 -2 -13.5 -6.5t-13 -12.5t-5.5 -20t9 -28l109 -181l118 166q12 18 12.5 32t-5 24.5t-14 17
t-14.5 8.5q-3 0 -3 4v4h183v-4q0 -4 -3 -4q-6 -2 -20 -6.5t-31.5 -13.5t-36.5 -23t-34 -35l-138 -194l208 -346q13 -23 26.5 -35.5t24.5 -18.5t20.5 -8t15.5 -4q3 -3 3 -4v-4h-282v4q0 2 3 4q6 2 14 5.5t14 10.5t7 17.5t-9 26.5l-134 226l-143 -204q-13 -18 -13.5 -32
t5.5 -24.5t14.5 -17t14.5 -8.5z" />
    <glyph glyph-name="Y" unicode="Y" horiz-adv-x="698" 
d="M689 692q-6 -2 -19.5 -7.5t-29.5 -15.5t-33.5 -25t-30.5 -36l2 4l-169 -290v-246q0 -22 8.5 -34.5t20 -19t23.5 -9.5t18 -5q2 -2 2 -4v-4h-285q0 2 1 4q2 3 3 4q6 2 17.5 5t23 9.5t20 19t8.5 34.5v225l-178 326q-13 20 -25 32t-22.5 18.5t-19.5 9.5l-15 5q-2 1 -2.5 4
t-0.5 4h275v-4q0 -4 -3 -4q-6 -2 -13.5 -6t-13.5 -11t-8 -18t5 -27l151 -274l157 268q5 15 1.5 26.5t-10 20t-15 14t-13.5 7.5q-1 0 -3 4q-1 2 -1 4h177q0 -1 -0.5 -4t-2.5 -4z" />
    <glyph glyph-name="Z" unicode="Z" horiz-adv-x="611" 
d="M564 700q-18 -71 -49 -133t-68.5 -118.5t-77.5 -109t-76 -103.5t-63.5 -103t-39.5 -107h169q37 0 74.5 24.5t68.5 56t52.5 61.5t26.5 41q0 3 4 3h3l-64 -212h-498q9 56 34.5 108.5t61 104.5t77 105t81 109t73.5 117.5t55 130.5h-157q-42 -4 -78.5 -26t-64 -48.5t-44 -50
t-18.5 -29.5q-2 -3 -4 -3h-4l45 182h481v0z" />
    <glyph glyph-name="bracketleft" unicode="[" horiz-adv-x="235" 
d="M30 -58v758h168v-20l-59 -5v-708l59 -5v-20h-168z" />
    <glyph glyph-name="backslash" unicode="\" horiz-adv-x="429" 
d="M62 700l347 -700h-42l-347 700h42z" />
    <glyph glyph-name="bracketright" unicode="]" horiz-adv-x="235" 
d="M37 680v20h168v-758h-168v20l59 5v708z" />
    <glyph glyph-name="asciicircum" unicode="^" horiz-adv-x="338" 
d="M169 676l-80 -176h-69l138 200h22l138 -200h-69z" />
    <glyph glyph-name="underscore" unicode="_" horiz-adv-x="488" 
d="M468 11v-26h-448v26h448z" />
    <glyph glyph-name="grave" unicode="`" horiz-adv-x="159" 
d="M142 778l-13 -15l-112 89l42 46z" />
    <glyph glyph-name="a" unicode="a" horiz-adv-x="659" 
d="M640 51q-5 -10 -12.5 -21t-20 -20t-29.5 -15t-40 -6q-18 0 -39.5 4t-40.5 15.5t-33 33t-17 56.5q-26 -56 -76.5 -82.5t-106.5 -26.5q-37 0 -72 11.5t-62.5 33t-44 53.5t-16.5 74q0 43 16 72.5t41.5 50t59 34.5t68.5 26.5t68.5 27t60.5 35t44 50t19 73.5q-1 28 -6 55.5
t-17.5 49t-34.5 35t-57 13.5q-34 0 -60 -8.5t-44 -21.5t-27.5 -30t-9.5 -33q0 -7 8.5 -13t19 -13.5t19.5 -18.5t9 -28q0 -23 -17.5 -36.5t-38.5 -13.5q-22 0 -40.5 16t-18.5 54q0 40 17.5 71.5t46 53.5t64 34t71.5 12q123 0 190 -57.5t67 -161.5l-1 -423q0 -6 0.5 -14
t2.5 -16t6.5 -13.5t13.5 -5.5q17 0 30.5 16t19.5 30zM175 167q0 -34 8 -58.5t21.5 -40.5t31.5 -24t37 -8q24 0 48 11t43 32.5t31 53t12 71.5l1 197v30q-16 -33 -39 -53t-49 -35.5t-52 -28.5t-46.5 -31.5t-33.5 -46t-13 -69.5z" />
    <glyph glyph-name="b" unicode="b" horiz-adv-x="671" 
d="M29 693q-3 0 -3 4v3h212q52 0 110.5 -6t107.5 -24.5t81 -54t32 -95.5q0 -37 -12 -64.5t-31.5 -47.5t-45 -33t-53.5 -20q42 -5 79.5 -16.5t66 -32t45 -51t16.5 -73.5q0 -41 -16.5 -70.5t-44 -49.5t-63 -32.5t-72.5 -19t-72.5 -8.5t-63.5 -2h-276v4q0 2 3 4q6 2 17.5 5
t23 9.5t20 19t8.5 34.5v549q0 22 -8.5 34.5t-20 19t-23 9.5t-17.5 5zM441 502q0 42 -15 74.5t-42 54.5t-64 33t-82 11v-348q11 16 29 26.5t48 9.5h10q25 1 46 9.5t36.5 25.5t24.5 42.5t9 61.5zM304 340q-20 0 -32.5 -9t-20 -22.5t-10.5 -30t-3 -33.5v-165q0 -18 6.5 -29
t15.5 -16.5t19.5 -7t18.5 -1.5h9q31 0 63 9.5t58 29t43 50t17 71.5q0 39 -13 68t-36.5 48t-56.5 28.5t-73 9.5h-5z" />
    <glyph glyph-name="c" unicode="c" horiz-adv-x="666" 
d="M637 102q-17 -27 -42.5 -48.5t-56.5 -36.5t-66 -23.5t-71 -8.5q-90 0 -157.5 31.5t-113 83t-68 117t-22.5 133.5q0 97 33 166t85 113t116.5 65t126.5 21q46 0 87 -11t71.5 -32t48.5 -50.5t18 -66.5q0 -42 -21.5 -61t-46.5 -19q-23 0 -40.5 13.5t-17.5 37.5q0 18 8.5 29
t19 18.5t19.5 14.5t9 17q0 18 -11.5 34t-31 28t-45.5 19t-55 7q-70 0 -117.5 -28.5t-75.5 -75t-36.5 -106.5t-1 -122t30 -122t58.5 -106.5t83 -75t103 -28.5q45 0 90 20.5t82 61.5l8 -9v0z" />
    <glyph glyph-name="d" unicode="d" horiz-adv-x="721" 
d="M29 693q-3 0 -3 4v3h299q75 -1 140.5 -28t114 -73.5t77 -110t28.5 -138.5t-28.5 -138.5t-77 -110t-114 -73.5t-140.5 -28h-299v4q0 2 3 4q6 2 17.5 5t23 9.5t20 19t8.5 34.5v549q0 22 -8.5 34.5t-20 19t-23 9.5t-17.5 5zM538 350q0 64 -15.5 122.5t-44 103.5t-68.5 72
t-90 27h-82v-592q0 -22 8.5 -33.5t20 -17t23 -6t17.5 -0.5h13q50 0 90 26.5t68.5 71.5t44 103.5t15.5 122.5z" />
    <glyph glyph-name="e" unicode="e" horiz-adv-x="758" 
d="M708 230q-12 -51 -35.5 -95.5t-61 -78t-89.5 -52.5t-121 -19q-90 0 -157.5 31.5t-113 83t-68 117t-22.5 133.5q0 69 22.5 134.5t68 116.5t113 82.5t157.5 31.5q70 0 121.5 -19t89 -52t62 -77.5t40.5 -94.5q2 -8 4 -13v-1q-40 -40 -84.5 -62t-90.5 -34t-92.5 -17.5
t-90 -13t-84 -20.5t-73.5 -40q2 -5 3.5 -10.5t3.5 -10.5q16 -45 40 -85.5t54.5 -70.5t68 -47.5t80.5 -17.5q45 0 83.5 16t68 44t49 65.5t26.5 81.5zM312 672q-47 -20 -76.5 -60t-43 -91t-12 -109.5t15.5 -115.5q40 30 88 43t99.5 21t104 15.5t102.5 27.5l-2 9
q-13 55 -33.5 104t-48.5 86.5t-62 59.5t-74 22q-28 0 -58 -12z" />
    <glyph glyph-name="f" unicode="f" horiz-adv-x="570" 
d="M463 202q-2 10 -8 27t-17 33.5t-26.5 28.5t-37.5 12h-136v-227q0 -22 8.5 -34.5t20 -19t23 -9.5t17.5 -5q3 -3 3 -4v-4h-284v4q0 2 3 4q6 2 17.5 5t23 9.5t20 19t8.5 34.5v549q0 22 -8.5 34.5t-20 19t-23 9.5t-17.5 5q-3 0 -3 4v3h524v-166q-2 0 -4 1q-4 0 -4 2
q-5 18 -15.5 41.5t-26.5 45t-37.5 36.5t-49.5 15h-175v-346h140q21 1 36 13t25 28t16 32t8 26q0 1 4 3q2 0 3 1v-233h-3q-4 0 -4 3z" />
    <glyph glyph-name="g" unicode="g" horiz-adv-x="727" 
d="M364 337q111 0 185.5 -27.5t111.5 -69t37 -89.5t-37 -89.5t-111.5 -69t-185.5 -27.5q-99 0 -168.5 22t-110 56t-51.5 76t7 82t65 72.5t123 49.5q-16 7 -26.5 18.5t-10.5 31.5q0 11 5 19.5t13 16.5q-50 19 -79 49.5t-37 64.5t4.5 68t46.5 61.5t88.5 45t130.5 17.5
q75 0 128.5 -17t87.5 -44q12 5 21 15t12.5 20.5t0 20t-15.5 13.5q-22 6 -31 19t-7 26.5t13.5 23.5t31.5 10q26 0 40 -18.5t14 -39.5q0 -35 -19.5 -64t-43.5 -40q36 -37 40 -81.5t-25.5 -83.5t-91 -65t-155.5 -26q-73 0 -129 17q-7 -5 -13 -12.5t-6 -16.5q0 -12 7.5 -19
t18 -11.5t22.5 -6.5t22 -2q18 2 37.5 3t40.5 1zM313 665q-59 -31 -82 -75t-16.5 -84t37.5 -68t80 -28q41 0 90 25q40 20 63 47t31.5 55.5t4 56t-19.5 49t-40.5 34.5t-57.5 13q-41 0 -90 -25zM288 280q-50 -24 -79.5 -54.5t-40.5 -62.5t-5.5 -63t25 -55t51 -39t72.5 -15
q26 0 55 7t61 22q50 23 79.5 53.5t40.5 62.5t5.5 63t-25 55t-51 39t-72.5 15q-26 0 -55 -6.5t-61 -21.5z" />
    <glyph glyph-name="h" unicode="h" horiz-adv-x="770" 
d="M460 0v4q0 2 3 4q6 2 17.5 5t23 9.5t20 19t8.5 34.5v263h-294v-263q0 -22 8.5 -34.5t20 -19t23 -9.5t17.5 -5q3 -3 3 -4v-4h-284v4q0 2 3 4q6 2 17.5 5t23 9.5t20 19t8.5 34.5v549q0 22 -8.5 34.5t-20 19t-23 9.5t-17.5 5q-3 0 -3 4v3h284v-3q0 -4 -3 -4q-6 -2 -17.5 -5
t-23 -9.5t-20 -19t-8.5 -34.5v-263h294v263q0 22 -8.5 34.5t-20 19t-23 9.5t-17.5 5q-3 0 -3 4v3h283v-3q0 -4 -2 -4q-6 -2 -17.5 -5t-23.5 -9.5t-20.5 -19t-8.5 -34.5v-549q0 -22 8.5 -34.5t20.5 -19t23.5 -9.5t17.5 -5q2 -2 2 -4v-4h-283z" />
    <glyph glyph-name="i" unicode="i" horiz-adv-x="336" 
d="M307 492q-6 -2 -17.5 -5t-23 -9.5t-20 -19t-8.5 -34.5v-348q0 -22 8.5 -34.5t20 -19t23 -9.5t17.5 -5q3 -3 3 -4v-4h-284v4q0 2 3 4q6 2 17.5 5t23 9.5t20 19t8.5 34.5v348q0 22 -8.5 34.5t-20 19t-23 9.5t-17.5 5q-3 0 -3 4v3h65q28 0 52 14t36.5 32t11.5 34.5t-22 22.5
q-35 10 -50 29t-13.5 38t16.5 33t41 14q20 0 35 -8.5t25.5 -21.5t16 -29.5t5.5 -31.5q0 -34 -22.5 -69.5t-61.5 -56.5h149v-3q0 -4 -3 -4z" />
    <glyph glyph-name="j" unicode="j" horiz-adv-x="541" 
d="M448 215q0 -60 -20 -104t-52.5 -72.5t-73.5 -42t-83 -13.5q-36 0 -70.5 10.5t-60.5 30t-42 48.5t-16 67q0 45 18.5 63.5t39.5 18.5q19 0 34 -12.5t15 -33.5q0 -17 -9 -27t-19.5 -17t-19.5 -14.5t-9 -20.5q0 -16 9.5 -30.5t24.5 -25t34.5 -16.5t40.5 -6q22 0 43 8t38 26.5
t27.5 48t10.5 72.5l-1 452q0 22 -8.5 34.5t-20 19t-23 9.5t-17.5 5q-3 0 -3 4v3h285v-3q0 -4 -3 -4q-6 -2 -17.5 -5t-22.5 -9t-20 -17.5t-10 -31.5l1 -383v-32v0z" />
    <glyph glyph-name="k" unicode="k" horiz-adv-x="717" 
d="M975 -291q-105 0 -182.5 26.5t-134 70.5t-95.5 100t-66.5 114.5t-46.5 114.5t-37 100.5t-38 72t-48 28.5l-89 -109v-150q0 -22 8.5 -34.5t20 -19t23 -9.5t17.5 -5q3 -3 3 -4v-4h-284v4q0 2 3 4q6 2 17.5 5t23 9.5t20 19t8.5 34.5v549q0 22 -8.5 34.5t-20 19t-23 9.5
t-17.5 5q-3 0 -3 3v3v1h284q0 -1 -0.5 -4t-2.5 -3q-6 -2 -17.5 -5t-23 -9.5t-20 -19t-8.5 -34.5v-358l273 335q16 21 19.5 37t0.5 27t-10.5 17.5t-14.5 8.5q-3 0 -3 4v3h177v-3q0 -4 -2 -4q-6 -2 -19 -6.5t-31 -14.5t-39 -25.5t-42 -40.5l-200 -245q61 -5 109 -34t86.5 -74
t70.5 -101t62 -113.5t60.5 -112t65.5 -97t77 -68.5t96 -26q37 0 56 10.5t27 26.5t8.5 34.5t0.5 34.5q0 38 17.5 54.5t37.5 16.5t35.5 -14t15.5 -40q0 -31 -15.5 -58t-42.5 -47.5t-63 -32t-76 -11.5z" />
    <glyph glyph-name="l" unicode="l" horiz-adv-x="624" 
d="M238 79q0 -22 8 -32.5t19.5 -15t22.5 -5t17 -0.5h83q37 0 74 24t67.5 55t52 61t29.5 43q0 3 4 3h3l-65 -212h-527v4q0 2 3 4q6 2 17.5 5t23 9.5t20 19t8.5 34.5v549q0 22 -8.5 34.5t-20 19t-23 9.5t-17.5 5q-3 0 -3 4v3h284v-3q0 -4 -3 -4q-6 -2 -17.5 -5t-23 -9.5
t-20 -19t-8.5 -34.5v-546zM390 583q42 -45 52 -81t3.5 -66.5t-22 -57t-25.5 -53t-6.5 -54.5t34.5 -62l-12 -9q-47 53 -61 94t-9.5 74t20.5 60t28 51t12.5 47.5t-25.5 49.5z" />
    <glyph glyph-name="m" unicode="m" horiz-adv-x="1082" 
d="M1063 51q-5 -11 -12.5 -22t-20.5 -20t-31.5 -14.5t-43.5 -5.5q-20 0 -42.5 5.5t-41.5 20.5t-31.5 41t-12.5 68v268q0 48 -1 99.5t-10 93.5t-29.5 69t-60.5 27q-32 0 -54 -18.5t-36.5 -47t-21.5 -64t-10 -68.5q2 -24 3 -49t1 -50v-308q0 -22 8.5 -34.5t20.5 -19.5
t23.5 -9.5t17.5 -4.5q3 -3 3 -4v-4h-285q0 6 1 7t2 1q6 2 17.5 4.5t23 9.5t20 19.5t8.5 34.5v316q0 48 -2.5 99t-13 93t-32 68.5t-59.5 26.5q-35 0 -58.5 -24t-37.5 -61t-20 -81t-6 -84v-353q0 -22 8.5 -34.5t20.5 -19.5t23.5 -9.5t17.5 -4.5q3 -3 3 -4v-4h-285q0 6 1 7t2 1
q6 2 17.5 4.5t23 9.5t20 19.5t8.5 34.5v540q0 31 -8.5 45.5t-19.5 14.5q-23 0 -43 -43l-23 11q14 33 42 48.5t60 15.5q22 0 43.5 -7.5t39.5 -22t31 -36t17 -49.5q7 23 18.5 44t29.5 37.5t42 26t57 9.5q46 0 80.5 -11t59 -30.5t40 -47t24.5 -59.5q7 28 18.5 54.5t29 47.5
t40.5 33.5t53 12.5q81 0 128 -26.5t72 -71.5t32 -104t7 -124v-320q0 -6 0.5 -14t3 -14.5t7.5 -11.5t13 -5q17 0 30 14.5t19 28.5l21 -11v0z" />
    <glyph glyph-name="n" unicode="n" horiz-adv-x="766" 
d="M747 51q-5 -11 -12.5 -22t-20.5 -20t-31.5 -14.5t-43.5 -5.5q-20 0 -43 5.5t-42 20.5t-31.5 41t-12.5 68v275q0 48 -3.5 98.5t-16.5 91.5t-37.5 67t-66.5 26q-44 0 -72 -23.5t-45 -60.5t-23.5 -82t-6.5 -88v-352q0 -22 8.5 -34.5t20.5 -19.5t23.5 -9.5t17.5 -4.5
q3 -3 3 -4v-4h-285q0 6 1 7t2 1q6 2 17.5 4.5t23 9.5t20 19.5t8.5 34.5v540q0 31 -8.5 45.5t-19.5 14.5q-23 0 -43 -43l-23 11q14 33 42 48.5t59 15.5q22 0 43.5 -7t39.5 -21.5t30.5 -35t17.5 -47.5q9 23 22.5 43.5t32 36t43 24.5t55.5 9q83 0 134.5 -25.5t80 -69
t38.5 -101.5t10 -123v-327q0 -6 0.5 -14t3 -14.5t7.5 -11.5t13 -5q17 0 30 14.5t19 28.5l21 -11v0z" />
    <glyph glyph-name="o" unicode="o" 
d="M401 715q90 0 157.5 -25t113 -65.5t68 -93t22.5 -106.5t-22.5 -106.5t-68 -93t-113 -65.5t-157.5 -25t-157.5 25t-113 65.5t-68 93t-22.5 106.5t22.5 106.5t68 93t113 65.5t157.5 25zM309 674q-60 -25 -90.5 -73t-37.5 -105t8.5 -116.5t47.5 -108.5t78 -80t102 -31
q38 0 76 16q60 25 91 73t37 105t-9 116.5t-47 108.5t-78.5 80t-101.5 31q-38 0 -76 -16zM636 38q-38 -33 -71.5 -45.5t-64.5 -12.5q-30 0 -57 8t-53 18t-50.5 18t-49.5 8q-22 0 -43 -8.5t-44 -28.5l-9 12q46 43 86 59t76 16q32 0 61 -9t55 -19.5t50 -19.5t46 -9
q16 0 30.5 5.5t28.5 19.5z" />
    <glyph glyph-name="p" unicode="p" horiz-adv-x="625" 
d="M238 256q8 11 20.5 18.5t31.5 7.5h16q35 0 61.5 17t44 44.5t26 62.5t8.5 72t-8.5 72t-26 63t-44 45t-61.5 17h-68v-419zM297 259q-20 0 -31.5 -7.5t-17.5 -19t-8 -25.5t-2 -27v-104q0 -22 8.5 -34.5t20 -19t23 -9.5t17.5 -5q3 -3 3 -4v-4h-284v4q0 2 3 4q6 2 17.5 5
t23 9.5t20 19t8.5 34.5v549q0 22 -8.5 34.5t-20 19t-23 9.5t-17.5 5q-3 0 -3 4v4h72v-1h234q64 0 112.5 -19t81 -50t48.5 -70.5t16 -80.5q0 -42 -16 -81.5t-48.5 -70.5t-81 -50t-112.5 -19h-35z" />
    <glyph glyph-name="q" unicode="q" 
d="M1150 -149q0 -25 -14.5 -50t-41 -45.5t-64.5 -33.5t-84 -13q-91 0 -157.5 25t-116.5 66t-87 93.5t-68 107.5q-26 -8 -55 -12t-61 -4q-90 0 -157.5 31.5t-113 83t-68 117t-22.5 133.5q0 69 22.5 134.5t68 116.5t113 82.5t157.5 31.5t158 -31.5t113 -82.5t67.5 -116.5
t22.5 -134.5q0 -86 -35 -165.5t-106 -131.5q37 -59 71.5 -116t72.5 -102t83 -73t104 -28q34 0 51.5 10t25.5 25t9 33t1 34q0 35 17.5 51.5t38.5 16.5t38 -14t17 -39zM189 336q73 -1 131 -19t105.5 -48.5t85.5 -71t70 -85.5q18 32 27 70.5t11 80.5t-3.5 85.5t-16.5 85.5
q-14 51 -36.5 97.5t-51.5 81t-64 55t-74 20.5q-30 0 -60 -13q-43 -18 -70.5 -53t-42 -80.5t-17 -98.5t5.5 -107zM193 313q8 -43 26.5 -95.5t48 -98t69.5 -76.5t91 -31q31 0 61 13l12 6q-29 53 -58 103t-64 89t-80 63.5t-106 26.5z" />
    <glyph glyph-name="r" unicode="r" horiz-adv-x="674" 
d="M239 324v-248q0 -22 8.5 -34.5t20.5 -19t23.5 -9.5t17.5 -5q3 -3 3 -4v-4h-286v4q0 2 3 4q6 2 17.5 5t23 9.5t20 19t8.5 34.5v549q0 22 -8.5 34.5t-20 19t-23 9.5t-17.5 5q-3 0 -3 4v3h289q82 0 138 -25.5t86 -64t34.5 -84.5t-17.5 -87.5t-70 -72.5t-122 -40
q66 -25 119 -79t98.5 -119.5t88 -135t88.5 -127t98 -94t118 -36.5q37 0 56 10.5t27 26.5t8.5 34.5t0.5 34.5q0 38 17.5 54.5t37.5 16.5t35.5 -14t15.5 -40q0 -31 -15.5 -58t-42.5 -47.5t-63 -32t-76 -11.5q-106 0 -186 26.5t-141 69.5t-105.5 98t-77.5 113t-58 113t-47.5 98
t-45 69.5t-51.5 26.5h-10zM239 675v-326h41q50 0 83.5 24t50 60.5t16.5 78.5t-16.5 78.5t-50 60.5t-83.5 24h-41z" />
    <glyph glyph-name="s" unicode="s" horiz-adv-x="554" 
d="M535 177q0 -48 -22.5 -83.5t-59 -59t-83.5 -35t-95 -11.5q-45 0 -88.5 11t-77.5 31t-54.5 48t-20.5 63q0 40 19 58t42 18q21 0 37.5 -13.5t16.5 -37.5q0 -14 -6.5 -24.5t-15 -18.5t-15 -14.5t-6.5 -13.5q0 -19 13.5 -34.5t35.5 -26t50.5 -16.5t58.5 -6q31 0 60 7t51 21.5
t35.5 37.5t13.5 55q0 42 -28 69.5t-70.5 50t-92 44t-92 51t-70.5 71t-28 103.5q0 48 19 84t50 59.5t71.5 35t82.5 11.5q39 0 78 -11t70 -31t50.5 -48t19.5 -61q0 -38 -20.5 -56t-43.5 -18q-20 0 -36.5 13t-16.5 38q0 11 6 20.5t13.5 18.5t14 17t6.5 15q0 19 -11 34t-29 25
t-41.5 15t-48.5 5q-28 0 -53 -8.5t-44 -24.5t-30.5 -39t-11.5 -52q0 -41 29.5 -68.5t73.5 -49.5t95.5 -43.5t95.5 -51t73.5 -71t29.5 -103.5z" />
    <glyph glyph-name="t" unicode="t" horiz-adv-x="655" 
d="M642 525q-2 10 -18.5 35.5t-41 51t-55.5 45.5t-63 20h-66v-601q0 -22 8.5 -34.5t20 -19t23 -9.5t17.5 -5q3 -3 3 -4v-4h-284v4q0 2 3 4q6 2 17.5 5t23 9.5t20 19t8.5 34.5v601h-65q-33 0 -64 -20t-56 -45.5t-41 -51t-18 -35.5q-2 -2 -4 -2q-2 -1 -4 -1l33 178h578
l32 -178q-1 0 -3 1q-4 0 -4 2z" />
    <glyph glyph-name="u" unicode="u" horiz-adv-x="742" 
d="M494 112q-7 -24 -20 -46t-32.5 -39t-47.5 -27t-65 -10q-77 0 -122.5 25.5t-69.5 68.5t-31 99.5t-7 117.5v321v16.5t-2 21t-7.5 18.5t-15.5 8q-8 0 -15.5 -5t-14 -12.5t-11.5 -15.5t-8 -15l-20 12q4 10 11.5 21t19 20t26 14.5t34.5 5.5t45 -5.5t47.5 -21t37.5 -43.5
t15 -74v-274q0 -48 2.5 -97t13.5 -88t33 -63.5t62 -24.5q43 0 70.5 26t43.5 64.5t21.5 81.5t5.5 76l1 393l-1 -36q0 22 -8.5 34.5t-20 19t-23 9.5t-17.5 5q-3 0 -3 4v3h213v-625q0 -26 8 -39t20 -13q11 0 22.5 11t21.5 33l22 -11q-15 -33 -43 -48.5t-60 -15.5q-23 0 -46 8
t-41.5 23.5t-30.5 37.5t-13 51z" />
    <glyph glyph-name="v" unicode="v" horiz-adv-x="705" 
d="M9 692q-2 1 -2.5 4t-0.5 4h275v-4q0 -4 -3 -4q-6 -2 -14.5 -4.5t-16 -8.5t-11 -16.5t1.5 -28.5l207 -464l164 353q14 31 12 50.5t-10 35t-17 30.5t-9 36q0 22 15.5 33.5t35.5 11.5q14 0 27 -7t20 -21.5t6 -37.5t-16 -54l-279 -600h-29l-280 631q-8 16 -18.5 26.5
t-21.5 17.5t-20.5 11t-15.5 6z" />
    <glyph glyph-name="w" unicode="w" horiz-adv-x="909" 
d="M9 692q-2 1 -2.5 4t-0.5 4h271v-4q0 -4 -3 -4q-6 -2 -16 -5t-17.5 -10t-9.5 -19.5t7 -33.5l-2 5l146 -420l133 420h40l155 -429l114 320q11 32 8 52t-11.5 36t-17.5 31t-9 36q0 22 15 34t34 12q13 0 25.5 -7t19.5 -21.5t7 -37.5t-12 -55l-216 -600h-36l-155 417
l-132 -417h-38l-219 627q-8 17 -19 28.5t-22 19t-21 11.5t-16 6z" />
    <glyph glyph-name="x" unicode="x" horiz-adv-x="675" 
d="M187 8q3 -3 3 -4v-4h-184q0 1 0.5 4t2.5 4q6 2 19 6.5t29.5 12.5t35 21t34.5 31l169 239l-183 305v-1q-14 22 -26.5 34.5t-23.5 20t-20 10.5l-15 5q-2 1 -3 4t0 4h278v-4q0 -4 -3 -4q-6 -2 -13.5 -6.5t-12.5 -13t-5.5 -20.5t7.5 -29l109 -180l114 161q13 19 14 34.5
t-4.5 26.5t-14 18t-14.5 9q-3 0 -3 4v4h186v-4q0 -4 -3 -4l-19.5 -6.5t-30.5 -13.5t-36 -22.5t-36 -34.5l-139 -196l206 -340q35 -58 70 -118t74 -109t84.5 -80t100.5 -31q54 0 75 23.5t21 77.5q0 37 17 54t37 17t36 -14.5t16 -41.5q0 -29 -18.5 -55.5t-50.5 -47t-74 -32.5
t-89 -12q-59 0 -116 19.5t-110.5 57t-102 92t-90.5 124.5l-175 291l-145 -205l-63 -89l68 97q-14 -20 -15 -35.5t4 -26.5t13.5 -18t14.5 -9z" />
    <glyph glyph-name="y" unicode="y" horiz-adv-x="687" 
d="M628 700v-419q0 -61 -17 -115.5t-52.5 -95.5t-91 -65t-131.5 -24q-45 0 -83.5 11t-67.5 31t-45.5 48t-16.5 62q0 36 17.5 52t37.5 16t35.5 -12.5t15.5 -34.5q0 -13 -5 -22.5t-11.5 -17t-11.5 -14t-5 -13.5q0 -38 38 -60t98 -22q63 0 95 24t45.5 66t14.5 98.5t1 121.5v50
q-8 -26 -21 -50t-34 -42.5t-49.5 -30t-66.5 -11.5q-77 0 -120.5 26.5t-65.5 66.5t-27 88t-5 91v133q0 6 -1 14.5t-3.5 16.5t-7.5 13.5t-13 5.5t-15.5 -5t-14 -12.5t-11.5 -15.5t-8 -15l-20 12q4 10 11.5 21t19 20t27.5 14.5t39 5.5q20 0 44.5 -6t45.5 -21.5t35 -42.5t14 -69
v-127q0 -30 2 -62.5t11 -59.5t28.5 -44.5t54.5 -17.5q45 0 74 27t46 65.5t23.5 82t6.5 76.5l1 -1v150l-1 -36q0 22 -8.5 34.5t-20 19t-23 9.5t-17.5 5q-3 0 -3 4v3h213z" />
    <glyph glyph-name="z" unicode="z" horiz-adv-x="611" 
d="M571 700l-365 -674h153q37 0 74.5 24.5t68.5 56t52.5 61.5t26.5 41q0 3 4 3h3l-64 -212h-498l12 20l362 655h-144q-42 -4 -78.5 -26t-64 -48.5t-43.5 -50t-18 -29.5q-2 -3 -4 -3h-4l44 182h483z" />
    <glyph glyph-name="braceleft" unicode="{" horiz-adv-x="279" 
d="M145 122q0 -36 5 -66t17 -52.5t32 -35t50 -12.5l-3 -18q-41 0 -77 13t-62 38t-41.5 62t-16.5 86q0 29 8.5 60t13 57t-2.5 43t-40 17v21q33 0 40 18.5t2.5 46t-13 60.5t-8.5 62q1 49 16.5 84.5t41.5 58.5t62 34.5t77 11.5l2 -18q-30 0 -50 -12.5t-32 -35t-16.5 -52.5
t-4.5 -66q0 -32 -2 -63.5t-9 -58.5t-20.5 -48.5t-35.5 -32.5q22 -11 35.5 -32t20.5 -48t9 -58.5t2 -63.5z" />
    <glyph glyph-name="bar" unicode="|" horiz-adv-x="139" 
d="M84 700v-792h-29v792h29z" />
    <glyph glyph-name="braceright" unicode="}" horiz-adv-x="242" 
d="M228 137q0 -49 -15.5 -86t-42 -62t-62.5 -38t-77 -13l-3 18q30 0 50 12.5t32 35t17 52.5t5 66q0 32 2 63.5t9 58.5t20 48.5t36 32.5q-23 11 -36 32t-20 48t-9 58.5t-2 63.5q0 36 -4.5 66t-16.5 52.5t-32 35t-50 12.5l2 18q41 0 77 -11.5t62.5 -34.5t42 -58.5t15.5 -84.5
q0 -29 -8.5 -62t-13 -60.5t3 -46t39.5 -18.5v-21q-32 0 -39.5 -17t-3 -43t13 -57t8.5 -60z" />
    <glyph glyph-name="asciitilde" unicode="~" horiz-adv-x="401" 
d="M381 366q-35 -58 -65.5 -80t-56.5 -22q-25 0 -47.5 14.5t-42.5 32t-39 32t-37 14.5q-14 0 -28 -11.5t-29 -39.5l-16 10q32 62 61 85.5t55 23.5q24 0 46.5 -14t44 -31.5t42 -31.5t40.5 -14q14 0 28 9.5t28 32.5l16 -10v0z" />
    <glyph glyph-name="exclamdown" unicode="&#xa1;" horiz-adv-x="203" 
d="M164 479q0 -26 -18 -43.5t-45 -17.5q-26 0 -43.5 17.5t-17.5 43.5t17.5 44t43.5 18q27 0 45 -18t18 -44zM175 -87q5 -26 -1 -43t-18 -27.5t-27 -15t-28 -4.5q-12 0 -27 4t-27 14t-18 27.5t-1 44.5l62 458h23z" />
    <glyph glyph-name="cent" unicode="&#xa2;" horiz-adv-x="479" 
d="M467 126q-25 -39 -71.5 -63.5t-99.5 -26.5v-55l-25 1v54q-66 2 -115.5 26t-82.5 61.5t-49.5 84.5t-16.5 96q0 59 20 107t55.5 83t83.5 55t105 22v94l25 -1v-93q34 -2 63.5 -11t51.5 -24.5t35 -38t13 -49.5q0 -33 -17 -48t-37 -15q-18 0 -32 10.5t-14 28.5q0 14 6.5 22.5
t15 14.5t15 11.5t6.5 13.5q0 13 -8.5 25t-23 21t-33.5 14.5t-41 5.5v-475q16 -3 32 -3q35 0 68.5 15.5t62.5 45.5zM271 551q-58 -6 -92.5 -38t-49.5 -78t-11 -100t23 -104t52.5 -90t77.5 -57v467z" />
    <glyph glyph-name="sterling" unicode="&#xa3;" horiz-adv-x="489" 
d="M50 0v15q45 66 67 136.5t30 148.5h-127v22h129q3 48 4.5 101.5t10 102.5t28 89.5t59.5 62.5q13 7 36 13t46 6q31 0 45.5 -13.5t16 -29t-8.5 -29t-28 -13.5t-25.5 9t-13 19.5t-14 18.5t-29.5 5q-18 -2 -25 -18t-6.5 -41.5t6 -58.5t12 -70.5t12 -77t5.5 -76.5h108v-22h-109
q-6 -93 -55 -166.5t-137 -106.5l203 3q34 5 64 23.5t53 40t37 40t16 24.5q0 3 4 3h4l-50 -161h-368z" />
    <glyph glyph-name="yen" unicode="&#xa5;" horiz-adv-x="690" 
d="M687 692q-6 -2 -17.5 -7t-26.5 -13.5t-31 -21t-30 -30.5l-174 -300v-3h107v-29h-107v-70h107v-30h-107v-112q0 -22 8.5 -34.5t20 -19t23.5 -9.5t18 -5q2 -2 2 -4v-4h-285q0 2 1 4q2 3 3 4q6 2 17.5 5t23 9.5t20 19t8.5 34.5v112h-113v30h113v70h-113v29h104l-168 308
q-13 21 -25 33t-23 19t-20 10l-15 5q-2 1 -2.5 4t-0.5 4h275v-4q0 -4 -3 -4q-6 -2 -14 -6t-14 -11t-7.5 -18t4.5 -27l153 -275l155 268q5 15 2 27t-10 20.5t-15 14t-13 7.5q-1 0 -3 4q-1 2 -1 4h176q0 -1 -0.5 -4t-2.5 -4z" />
    <glyph glyph-name="section" unicode="&#xa7;" horiz-adv-x="367" 
d="M347 77q0 -36 -15 -61.5t-38 -41t-51.5 -23t-56.5 -7.5q-50 0 -92 21.5t-74 56.5l29 81q0 -39 13 -66t33 -43.5t44 -24t47 -7.5q24 0 46 6.5t38.5 19.5t26.5 33.5t10 48.5q0 34 -21 50.5t-53 25.5t-69 15t-69 18.5t-53 36.5t-21 69q0 49 32 78.5t74 40.5q-21 6 -40.5 14
t-34 21.5t-23 32.5t-8.5 47q0 32 14.5 56t37 39.5t51 23.5t55.5 8q41 0 75.5 -17.5t59.5 -50.5l-29 -76q0 31 -9.5 54.5t-25 39.5t-34.5 24t-37 8q-24 0 -45.5 -6t-37.5 -18.5t-25.5 -32t-9.5 -46.5q0 -38 21 -56.5t53 -28.5t69 -16t69 -17t53 -32.5t21 -62.5
q0 -29 -9 -50.5t-24.5 -37.5t-36 -26t-42.5 -15q22 -5 42.5 -12.5t36 -19.5t24.5 -30t9 -44zM171 196q27 -2 51.5 3t43 18.5t30 35t11.5 51.5q0 24 -10.5 39t-28 24.5t-40.5 15t-48 10.5q-49 1 -84 -23.5t-35 -79.5q0 -24 9 -39.5t24 -26t35 -17t42 -11.5z" />
    <glyph glyph-name="dieresis" unicode="&#xa8;" horiz-adv-x="243" 
d="M107 800q0 -18 -15 -32t-33 -14q-21 0 -35.5 14t-14.5 32q0 21 14.5 35.5t35.5 14.5q18 0 33 -14.5t15 -35.5zM234 800q0 -18 -13 -32t-30 -14q-21 0 -37 14t-16 32q0 21 16 35.5t37 14.5q17 0 30 -14.5t13 -35.5z" />
    <glyph glyph-name="copyright" unicode="&#xa9;" horiz-adv-x="572" 
d="M547 331q0 -54 -20.5 -102t-56.5 -84t-83.5 -57t-101.5 -21q-55 0 -103 21t-84 57t-56.5 84t-20.5 102t21 102t57 84t84 56.5t102 20.5t101.5 -21t83.5 -56.5t56.5 -83.5t20.5 -102zM285 575q-76 0 -126.5 -36t-75.5 -90.5t-25 -118t25.5 -118t75.5 -90.5t126 -36
q75 0 125 36t75 90.5t25 118t-25 118t-75 90.5t-125 36zM402 222q-14 -27 -46.5 -45t-68.5 -18q-43 0 -75 15t-53 39.5t-31.5 56t-10.5 64.5q0 34 10.5 65.5t31.5 56t53 39t75 14.5q16 0 36.5 -5.5t38.5 -15.5t30 -23t12 -28q0 -11 -4.5 -15.5t-10.5 -4.5t-12 4t-8 11
q-4 10 -9.5 21.5t-14.5 20.5t-23 15t-35 6q-46 0 -76.5 -24t-46 -59.5t-15.5 -77t15.5 -77t46 -59.5t76.5 -24q33 0 66.5 17t45.5 53z" />
    <glyph glyph-name="guillemotleft" unicode="&#xab;" horiz-adv-x="299" 
d="M195 157v-46l-175 225v28l175 225v-46l-152 -193zM279 157v-46l-175 225v28l175 225v-46l-152 -193z" />
    <glyph glyph-name="registered" unicode="&#xae;" horiz-adv-x="330" 
d="M310 576q0 -30 -11 -56.5t-30.5 -46.5t-46 -31.5t-56.5 -11.5q-31 0 -57.5 11.5t-46 31.5t-31 46.5t-11.5 56.5t11.5 56t31.5 45.5t46.5 30.5t56.5 11t56 -11.5t45.5 -31t31 -45.5t11.5 -55zM37 576q0 -26 10 -49.5t27.5 -41t41 -28t50.5 -10.5t50 10.5t40.5 28.5
t27.5 41t10 49t-10 49t-27.5 40.5t-41 28t-49.5 10.5q-27 0 -50.5 -10t-41 -27.5t-27.5 -41t-10 -49.5zM125 555v-70h-15v184h55q25 -1 44 -15t19 -41q0 -24 -16 -39t-39 -18l59 -71h-20l-56 70h-31zM125 570h35q21 0 37 10t16 33t-15.5 33.5t-36.5 10.5h-36v-87z" />
    <glyph glyph-name="degree" unicode="&#xb0;" horiz-adv-x="279" 
d="M259 588q0 -25 -9.5 -46.5t-25.5 -38t-38 -26t-46 -9.5q-25 0 -47 9.5t-38 26t-25.5 38t-9.5 46.5t9.5 46.5t26 37.5t38.5 25.5t46 9.5q25 0 46.5 -9.5t37.5 -25.5t25.5 -38t9.5 -46zM140 685q-21 0 -34.5 -14.5t-20.5 -36t-7 -46.5t7 -46.5t20.5 -36t34.5 -14.5
q20 0 34 14.5t20.5 36t7 46.5t-6.5 46.5t-21 36t-34 14.5z" />
    <glyph glyph-name="plusminus" unicode="&#xb1;" horiz-adv-x="400" 
d="M218 333v-165h-35v165h-165v35h165v165h35v-165h165v-35h-165zM380 35v-35h-360v35h360z" />
    <glyph glyph-name="acute" unicode="&#xb4;" horiz-adv-x="159" 
d="M144 851l-114 -89l-14 16l86 119z" />
    <glyph glyph-name="periodcentered" unicode="&#xb7;" horiz-adv-x="159" 
d="M139 350q0 -26 -17.5 -43.5t-43.5 -17.5t-43.5 17.5t-17.5 43.5t17.5 43.5t43.5 17.5t43.5 -17.5t17.5 -43.5z" />
    <glyph glyph-name="cedilla" unicode="&#xb8;" horiz-adv-x="184" 
d="M168 -125q0 -26 -21 -45t-57 -19q-17 0 -30 4.5t-22 10.5q-11 7 -18 16l16 40q0 -17 5 -27.5t11.5 -16t13 -7.5t11.5 -2q12 0 21.5 14.5t10 31.5t-11.5 31.5t-43 14.5q0 3 4.5 16.5t9.5 29t9.5 29.5t6.5 18l25 -8l-32 -71q37 -1 64 -16t27 -44z" />
    <glyph glyph-name="guillemotright" unicode="&#xbb;" horiz-adv-x="298" 
d="M278 336l-175 -225v46l152 193l-152 193v46l175 -225v-28zM194 336l-174 -225v46l151 193l-151 193v46l174 -225v-28z" />
    <glyph glyph-name="questiondown" unicode="&#xbf;" horiz-adv-x="441" 
d="M349 492q0 -26 -18 -44t-44 -18t-44 18t-18 44t18 44t44 18t44 -18t18 -44zM424 -12q0 -37 -16 -65.5t-42.5 -47.5t-60 -29t-69.5 -10q-38 0 -74 11t-65 34t-46.5 58t-17.5 83q0 52 18.5 86.5t45.5 59.5t58.5 45t58.5 43t44 53t15 76h29q8 -84 -2 -138.5t-30.5 -90
t-46.5 -57t-48.5 -40t-38.5 -40t-16 -55.5q0 -29 10 -49.5t26 -34t36.5 -19.5t41.5 -6q22 0 43.5 6t38 17.5t26.5 27.5t10 37q0 7 -6.5 14t-14 14.5t-14 17t-6.5 21.5q0 22 17 35t38 13t39.5 -16t18.5 -54z" />
    <glyph glyph-name="Agrave" unicode="&#xc0;" horiz-adv-x="785" 
d="M455 778l-13 -15l-112 89l41 46zM775 8q2 -2 3 -4t1 -4h-275v4q0 2 3 4l15 5t16.5 9t10.5 17t-4 30l-69 155q-8 -25 -31.5 -35.5t-56.5 -14t-70.5 -4.5t-73 -5.5t-65 -17t-45.5 -39.5l-9 -21q-6 -18 -2.5 -32t10.5 -23.5t15.5 -15.5t14.5 -8q3 -3 3 -4v-4h-160v4q0 2 3 4
q6 2 18.5 10t26 19.5t26.5 27t21 32.5l-1 -2l269 618h44l286 -644q8 -16 18.5 -26.5t21.5 -17.5t20.5 -11t15.5 -6zM328 556l-170 -393q26 15 58 21t65 8t64.5 3t56 5.5t39.5 15t15 31.5q0 11 -2.5 21.5t-6.5 20.5z" />
    <glyph glyph-name="Aacute" unicode="&#xc1;" horiz-adv-x="785" 
d="M456 851l-114 -89l-13 16l86 119zM775 8q2 -2 3 -4t1 -4h-275v4q0 2 3 4l15 5t16.5 9t10.5 17t-4 30l-69 155q-8 -25 -31.5 -35.5t-56.5 -14t-70.5 -4.5t-73 -5.5t-65 -17t-45.5 -39.5l-9 -21q-6 -18 -2.5 -32t10.5 -23.5t15.5 -15.5t14.5 -8q3 -3 3 -4v-4h-160v4
q0 2 3 4q6 2 18.5 10t26 19.5t26.5 27t21 32.5l-1 -2l269 618h44l286 -644q8 -16 18.5 -26.5t21.5 -17.5t20.5 -11t15.5 -6zM328 556l-170 -393q26 15 58 21t65 8t64.5 3t56 5.5t39.5 15t15 31.5q0 11 -2.5 21.5t-6.5 20.5z" />
    <glyph glyph-name="Acircumflex" unicode="&#xc2;" horiz-adv-x="785" 
d="M393 816l-58 -53h-26l56 88h55l56 -88h-25zM775 8q2 -2 3 -4t1 -4h-275v4q0 2 3 4l15 5t16.5 9t10.5 17t-4 30l-69 155q-8 -25 -31.5 -35.5t-56.5 -14t-70.5 -4.5t-73 -5.5t-65 -17t-45.5 -39.5l-9 -21q-6 -18 -2.5 -32t10.5 -23.5t15.5 -15.5t14.5 -8q3 -3 3 -4v-4h-160
v4q0 2 3 4q6 2 18.5 10t26 19.5t26.5 27t21 32.5l-1 -2l269 618h44l286 -644q8 -16 18.5 -26.5t21.5 -17.5t20.5 -11t15.5 -6zM328 556l-170 -393q26 15 58 21t65 8t64.5 3t56 5.5t39.5 15t15 31.5q0 11 -2.5 21.5t-6.5 20.5z" />
    <glyph glyph-name="Atilde" unicode="&#xc3;" horiz-adv-x="785" 
d="M503 811q-5 -6 -11.5 -15.5t-14.5 -18.5t-18.5 -15.5t-22.5 -6.5q-15 0 -28 7t-25 16t-23.5 16t-24.5 7q-8 0 -17 -4t-20 -15l-15 8q6 7 13 17t15.5 19.5t19.5 16t24 6.5q12 0 24 -7t24 -15.5t24.5 -15.5t26.5 -7q18 0 36 17zM775 8q2 -2 3 -4t1 -4h-275v4q0 2 3 4l15 5
t16.5 9t10.5 17t-4 30l-69 155q-8 -25 -31.5 -35.5t-56.5 -14t-70.5 -4.5t-73 -5.5t-65 -17t-45.5 -39.5l-9 -21q-6 -18 -2.5 -32t10.5 -23.5t15.5 -15.5t14.5 -8q3 -3 3 -4v-4h-160v4q0 2 3 4q6 2 18.5 10t26 19.5t26.5 27t21 32.5l-1 -2l269 618h44l286 -644
q8 -16 18.5 -26.5t21.5 -17.5t20.5 -11t15.5 -6zM328 556l-170 -393q26 15 58 21t65 8t64.5 3t56 5.5t39.5 15t15 31.5q0 11 -2.5 21.5t-6.5 20.5z" />
    <glyph glyph-name="Adieresis" unicode="&#xc4;" horiz-adv-x="785" 
d="M377 800q0 -18 -14.5 -32t-33.5 -14q-20 0 -34.5 14t-14.5 32q0 21 14.5 35.5t34.5 14.5q19 0 33.5 -14.5t14.5 -35.5zM505 800q0 -18 -13 -32t-30 -14q-21 0 -37 14t-16 32q0 21 16 35.5t37 14.5q17 0 30 -14.5t13 -35.5zM775 8q2 -2 3 -4t1 -4h-275v4q0 2 3 4l15 5
t16.5 9t10.5 17t-4 30l-69 155q-8 -25 -31.5 -35.5t-56.5 -14t-70.5 -4.5t-73 -5.5t-65 -17t-45.5 -39.5l-9 -21q-6 -18 -2.5 -32t10.5 -23.5t15.5 -15.5t14.5 -8q3 -3 3 -4v-4h-160v4q0 2 3 4q6 2 18.5 10t26 19.5t26.5 27t21 32.5l-1 -2l269 618h44l286 -644
q8 -16 18.5 -26.5t21.5 -17.5t20.5 -11t15.5 -6zM328 556l-170 -393q26 15 58 21t65 8t64.5 3t56 5.5t39.5 15t15 31.5q0 11 -2.5 21.5t-6.5 20.5z" />
    <glyph glyph-name="Aring" unicode="&#xc5;" horiz-adv-x="785" 
d="M775 8q2 -2 3 -4t1 -4h-275v4q0 2 3 4l15 5t16.5 9t10.5 17t-4 30l-69 155q-8 -25 -31.5 -35.5t-56.5 -14t-70.5 -4.5t-73 -5.5t-65 -17t-45.5 -39.5l-9 -21q-6 -18 -2.5 -32t10.5 -23.5t15.5 -15.5t14.5 -8q3 -3 3 -4v-4h-160v4q0 2 3 4q6 2 18.5 10t26 19.5t26.5 27
t21 32.5l-1 -2l266 610q-23 8 -36.5 26t-13.5 41q0 29 22 49.5t53 20.5q30 0 51 -21t21 -49q0 -23 -13 -40.5t-34 -25.5l283 -637q8 -16 18.5 -26.5t21.5 -17.5t20.5 -11t15.5 -6zM391 827q-20 0 -29.5 -17t-9.5 -38t9.5 -38t29.5 -17q19 0 28.5 17t9.5 38t-9.5 38t-28.5 17
zM328 556l-170 -393q26 15 58 21t65 8t64.5 3t56 5.5t39.5 15t15 31.5q0 11 -2.5 21.5t-6.5 20.5z" />
    <glyph glyph-name="AE" unicode="&#xc6;" horiz-adv-x="1028" 
d="M857 463q0 3 4 3h4v-230q-2 -1 -4 0q-4 0 -4 4q-2 10 -8 27t-16.5 33t-26 27.5t-37.5 11.5h-130v-262q0 -22 8.5 -32.5t20 -14t23 -3.5h17.5h83q26 0 52 11.5t49.5 29.5t43.5 39t35.5 40.5t25 34t11.5 18.5q0 3 4 3h4l-62 -202h-527v4q0 2 3 4q6 2 17.5 5t23 9.5t20 19
t8.5 34.5v139q-17 -26 -44.5 -37t-60.5 -14.5t-69 -4.5t-71 -6.5t-66 -21t-53 -47.5l-1 1q-9 -17 -7 -30t9 -23t16 -16.5t15 -8.5q3 -3 3 -4v-4h-161v4q0 2 3 4q6 2 17.5 9t25 18t27 25t24.5 30l374 582q-13 11 -27.5 15t-22.5 7q-3 0 -3 4v3h513v-163h-4q-4 0 -4 3
q-2 6 -9.5 28t-22.5 45.5t-38 42.5t-56 19h-167v-311h134q21 1 35.5 12.5t24.5 27.5t16 32t8 26zM499 626q0 7 -1 13t-3 11l-317 -495q32 17 68 22t71.5 6t68 3t57.5 13t40 36t16 73v318z" />
    <glyph glyph-name="Ccedilla" unicode="&#xc7;" horiz-adv-x="666" 
d="M407 -125q0 -26 -21 -45t-57 -19q-17 0 -30 4.5t-22 10.5q-11 7 -18 16l16 40q0 -17 5 -27.5t11.5 -16t13 -7.5t11.5 -2q12 0 21.5 14.5t10 31.5t-11.5 31.5t-43 14.5q0 2 2.5 10t6 18.5l7.5 22.5l7 21q-69 14 -121 49t-86.5 83.5t-51.5 106.5t-17 118q0 97 33 166
t85.5 113.5t117 65t127.5 20.5q46 0 87 -11.5t71 -32.5t47.5 -50.5t17.5 -65.5q0 -42 -21.5 -61t-46.5 -19q-23 0 -40.5 13.5t-17.5 37.5q0 18 8.5 29t19 18.5t19.5 14.5t9 17q0 36 -39 61t-109 25q-69 0 -115.5 -28.5t-73.5 -75t-35.5 -106t-1 -121.5t30.5 -121.5
t58.5 -106t82.5 -75t103 -28.5q45 0 90 20.5t82 61.5l8 -9q-17 -27 -42.5 -48.5t-56.5 -36.5t-66 -23.5t-71 -8.5q-16 0 -31 1t-30 3l-24 -54q37 -1 64 -16t27 -44z" />
    <glyph glyph-name="Egrave" unicode="&#xc8;" horiz-adv-x="624" 
d="M457 464q0 3 4 3h4v-233h-4q-4 0 -4 3q-2 10 -8 27t-16.5 33.5t-26 28.5t-37.5 12h-130v-262q0 -22 8.5 -32.5t20 -14t23 -3.5h17.5h78q27 0 53.5 12.5t50.5 31.5t45.5 41.5t37.5 42.5t26 35.5t12 19.5q0 3 4 3h3l-65 -212h-526v4q0 2 3 4q6 2 17.5 5t23 9.5t20 19
t8.5 34.5v549q0 22 -8.5 34.5t-20 19t-23 9.5t-17.5 5q-3 0 -3 4v3h513v-166q-2 0 -4 1q-4 0 -4 2q-2 6 -10 28.5t-23.5 47t-39 43.5t-56.5 19h-164v-311h134q21 1 35.5 13t24.5 28t16 32.5t8 26.5zM374 778l-13 -15l-112 89l41 46z" />
    <glyph glyph-name="Eacute" unicode="&#xc9;" horiz-adv-x="624" 
d="M457 464q0 3 4 3h4v-233h-4q-4 0 -4 3q-2 10 -8 27t-16.5 33.5t-26 28.5t-37.5 12h-130v-262q0 -22 8.5 -32.5t20 -14t23 -3.5h17.5h78q27 0 53.5 12.5t50.5 31.5t45.5 41.5t37.5 42.5t26 35.5t12 19.5q0 3 4 3h3l-65 -212h-526v4q0 2 3 4q6 2 17.5 5t23 9.5t20 19
t8.5 34.5v549q0 22 -8.5 34.5t-20 19t-23 9.5t-17.5 5q-3 0 -3 4v3h513v-166q-2 0 -4 1q-4 0 -4 2q-2 6 -10 28.5t-23.5 47t-39 43.5t-56.5 19h-164v-311h134q21 1 35.5 13t24.5 28t16 32.5t8 26.5zM376 851l-114 -89l-14 16l86 119z" />
    <glyph glyph-name="Ecircumflex" unicode="&#xca;" horiz-adv-x="624" 
d="M457 464q0 3 4 3h4v-233h-4q-4 0 -4 3q-2 10 -8 27t-16.5 33.5t-26 28.5t-37.5 12h-130v-262q0 -22 8.5 -32.5t20 -14t23 -3.5h17.5h78q27 0 53.5 12.5t50.5 31.5t45.5 41.5t37.5 42.5t26 35.5t12 19.5q0 3 4 3h3l-65 -212h-526v4q0 2 3 4q6 2 17.5 5t23 9.5t20 19
t8.5 34.5v549q0 22 -8.5 34.5t-20 19t-23 9.5t-17.5 5q-3 0 -3 4v3h513v-166q-2 0 -4 1q-4 0 -4 2q-2 6 -10 28.5t-23.5 47t-39 43.5t-56.5 19h-164v-311h130q22 0 37.5 12t26 28t16.5 33t8 27zM312 816l-58 -53h-26l56 88h55l56 -88h-25z" />
    <glyph glyph-name="Edieresis" unicode="&#xcb;" horiz-adv-x="624" 
d="M457 464q0 3 4 3h4v-233h-4q-4 0 -4 3q-2 10 -8 27t-16.5 33.5t-26 28.5t-37.5 12h-130v-262q0 -22 8.5 -32.5t20 -14t23 -3.5h17.5h78q27 0 53.5 12.5t50.5 31.5t45.5 41.5t37.5 42.5t26 35.5t12 19.5q0 3 4 3h3l-65 -212h-526v4q0 2 3 4q6 2 17.5 5t23 9.5t20 19
t8.5 34.5v549q0 22 -8.5 34.5t-20 19t-23 9.5t-17.5 5q-3 0 -3 4v3h513v-166q-2 0 -4 1q-4 0 -4 2q-2 6 -10 28.5t-23.5 47t-39 43.5t-56.5 19h-164v-311h130q22 0 37.5 12t26 28t16.5 33t8 27zM297 800q0 -18 -15 -32t-33 -14q-21 0 -35.5 14t-14.5 32q0 21 14.5 35.5
t35.5 14.5q18 0 33 -14.5t15 -35.5zM424 800q0 -18 -13 -32t-30 -14q-21 0 -36.5 14t-15.5 32q0 21 15.5 35.5t36.5 14.5q17 0 30 -14.5t13 -35.5z" />
    <glyph glyph-name="Igrave" unicode="&#xcc;" horiz-adv-x="337" 
d="M231 778l-14 -15l-111 89l41 46zM307 693q-6 -2 -17.5 -5t-23 -9.5t-20 -19t-8.5 -34.5v-549q0 -22 8.5 -34.5t20 -19t23 -9.5t17.5 -5q3 -3 3 -4v-4h-284v4q0 2 3 4q6 2 17.5 5t23 9.5t20 19t8.5 34.5v549q0 22 -8.5 34.5t-20 19t-23 9.5t-17.5 5q-3 0 -3 4v3h284v-3
q0 -4 -3 -4z" />
    <glyph glyph-name="Iacute" unicode="&#xcd;" horiz-adv-x="337" 
d="M232 851l-114 -89l-14 16l86 119zM307 693q-6 -2 -17.5 -5t-23 -9.5t-20 -19t-8.5 -34.5v-549q0 -22 8.5 -34.5t20 -19t23 -9.5t17.5 -5q3 -3 3 -4v-4h-284v4q0 2 3 4q6 2 17.5 5t23 9.5t20 19t8.5 34.5v549q0 22 -8.5 34.5t-20 19t-23 9.5t-17.5 5q-3 0 -3 4v3h284v-3
q0 -4 -3 -4z" />
    <glyph glyph-name="Icircumflex" unicode="&#xce;" horiz-adv-x="337" 
d="M168 816l-58 -53h-25l56 88h55l56 -88h-26zM307 693q-6 -2 -17.5 -5t-23 -9.5t-20 -19t-8.5 -34.5v-549q0 -22 8.5 -34.5t20 -19t23 -9.5t17.5 -5q3 -3 3 -4v-4h-284v4q0 2 3 4q6 2 17.5 5t23 9.5t20 19t8.5 34.5v549q0 22 -8.5 34.5t-20 19t-23 9.5t-17.5 5q-3 0 -3 4v3
h284v-3q0 -4 -3 -4z" />
    <glyph glyph-name="Idieresis" unicode="&#xcf;" horiz-adv-x="337" 
d="M153 800q0 -18 -14.5 -32t-33.5 -14q-21 0 -35 14t-14 32q0 21 14 35.5t35 14.5q19 0 33.5 -14.5t14.5 -35.5zM281 800q0 -18 -13.5 -32t-29.5 -14q-21 0 -37 14t-16 32q0 21 16 35.5t37 14.5q16 0 29.5 -14.5t13.5 -35.5zM307 693q-6 -2 -17.5 -5t-23 -9.5t-20 -19
t-8.5 -34.5v-549q0 -22 8.5 -34.5t20 -19t23 -9.5t17.5 -5q3 -3 3 -4v-4h-284v4q0 2 3 4q6 2 17.5 5t23 9.5t20 19t8.5 34.5v549q0 22 -8.5 34.5t-20 19t-23 9.5t-17.5 5q-3 0 -3 4v3h284v-3q0 -4 -3 -4z" />
    <glyph glyph-name="Eth" unicode="&#xd0;" horiz-adv-x="721" 
d="M29 693q-3 0 -3 4v3h299q75 -1 140.5 -28t114 -73.5t77 -110t28.5 -138.5t-28.5 -138.5t-77 -110t-114 -73.5t-140.5 -28h-299v4q0 2 3 4q6 2 17.5 5t23 9.5t20 19t8.5 34.5v252h-122v38h122v259q0 22 -8.5 34.5t-20 19t-23 9.5t-17.5 5zM286 328h-48v-245
q0 -22 8.5 -33.5t20 -17t23 -6t17.5 -0.5h13q50 0 90 26.5t68.5 71.5t44 103.5t15.5 122.5t-15.5 122.5t-44 103.5t-68.5 72t-90 27h-82v-309h48v-38z" />
    <glyph glyph-name="Ntilde" unicode="&#xd1;" horiz-adv-x="742" 
d="M481 811q-5 -6 -11.5 -15.5t-14.5 -18.5t-18 -15.5t-22 -6.5q-15 0 -28.5 7t-25.5 16t-23.5 16t-23.5 7q-8 0 -17 -4t-20 -15l-16 8q6 7 13 17t16 19.5t19.5 16t23.5 6.5q12 0 24 -7t24 -15.5t24.5 -15.5t26.5 -7q18 0 36 17zM608 0q-27 60 -64.5 108.5t-80.5 91
t-89 81.5t-90 80.5t-84.5 88.5t-71.5 105v-458q0 -22 9.5 -37.5t22.5 -26.5t25.5 -17t18.5 -8q3 -3 3 -4v-4h-184v4q0 2 3 4q6 2 18.5 8t25.5 17t22.5 26.5t9.5 37.5v500q0 28 -8.5 45.5t-20 28t-23 15.5t-17.5 7q-3 0 -3 4v3h172q24 -59 57.5 -105t72 -85t79 -72.5
t78.5 -66.5t70.5 -68t54.5 -77v377q0 22 -10 38t-22.5 26.5t-25.5 17t-19 8.5q-3 0 -3 4v3h185v-3q0 -4 -3 -4q-6 -2 -18.5 -8.5t-25.5 -17t-22.5 -26.5t-9.5 -38v-603h-32z" />
    <glyph glyph-name="Ograve" unicode="&#xd2;" 
d="M464 778l-14 -15l-111 89l41 46zM762 350q0 -68 -22.5 -133.5t-67.5 -117t-113 -83t-158 -31.5t-157.5 31.5t-113 83t-68 117t-22.5 133.5q0 69 22.5 134.5t68 116.5t113 82.5t157.5 31.5t158 -31.5t113 -82.5t67.5 -116.5t22.5 -134.5zM204 266q14 -51 36 -97.5t51 -81
t63.5 -55t73.5 -20.5q31 0 61 13q49 21 78.5 64.5t42 100t9 120t-19.5 124.5q-14 51 -36.5 97.5t-51.5 81t-64 55t-74 20.5q-30 0 -60 -13q-50 -21 -79.5 -64.5t-41.5 -100t-8.5 -120t20.5 -124.5z" />
    <glyph glyph-name="Oacute" unicode="&#xd3;" 
d="M465 851l-114 -89l-14 16l86 119zM762 350q0 -68 -22.5 -133.5t-67.5 -117t-113 -83t-158 -31.5t-157.5 31.5t-113 83t-68 117t-22.5 133.5q0 69 22.5 134.5t68 116.5t113 82.5t157.5 31.5t158 -31.5t113 -82.5t67.5 -116.5t22.5 -134.5zM204 266q14 -51 36 -97.5t51 -81
t63.5 -55t73.5 -20.5q31 0 61 13q49 21 78.5 64.5t42 100t9 120t-19.5 124.5q-14 51 -36.5 97.5t-51.5 81t-64 55t-74 20.5q-30 0 -60 -13q-50 -21 -79.5 -64.5t-41.5 -100t-8.5 -120t20.5 -124.5z" />
    <glyph glyph-name="Ocircumflex" unicode="&#xd4;" 
d="M401 816l-58 -53h-25l55 88h56l56 -88h-26zM762 350q0 -68 -22.5 -133.5t-67.5 -117t-113 -83t-158 -31.5t-157.5 31.5t-113 83t-68 117t-22.5 133.5q0 69 22.5 134.5t68 116.5t113 82.5t157.5 31.5t158 -31.5t113 -82.5t67.5 -116.5t22.5 -134.5zM204 266
q14 -51 36 -97.5t51 -81t63.5 -55t73.5 -20.5q31 0 61 13q49 21 78.5 64.5t42 100t9 120t-19.5 124.5q-14 51 -36.5 97.5t-51.5 81t-64 55t-74 20.5q-30 0 -60 -13q-50 -21 -79.5 -64.5t-41.5 -100t-8.5 -120t20.5 -124.5z" />
    <glyph glyph-name="Otilde" unicode="&#xd5;" 
d="M511 811q-5 -6 -11.5 -15.5t-14.5 -18.5t-18 -15.5t-22 -6.5q-15 0 -28.5 7t-25.5 16t-23.5 16t-23.5 7q-8 0 -17 -4t-20 -15l-16 8q6 7 13 17t16 19.5t20 16t24 6.5q12 0 23.5 -7t23.5 -15.5t24.5 -15.5t26.5 -7q18 0 36 17zM762 350q0 -68 -22.5 -133.5t-67.5 -117
t-113 -83t-158 -31.5t-157.5 31.5t-113 83t-68 117t-22.5 133.5q0 69 22.5 134.5t68 116.5t113 82.5t157.5 31.5t158 -31.5t113 -82.5t67.5 -116.5t22.5 -134.5zM204 266q14 -51 36 -97.5t51 -81t63.5 -55t73.5 -20.5q31 0 61 13q49 21 78.5 64.5t42 100t9 120t-19.5 124.5
q-14 51 -36.5 97.5t-51.5 81t-64 55t-74 20.5q-30 0 -60 -13q-50 -21 -79.5 -64.5t-41.5 -100t-8.5 -120t20.5 -124.5z" />
    <glyph glyph-name="Odieresis" unicode="&#xd6;" 
d="M386 800q0 -18 -14.5 -32t-33.5 -14q-21 0 -35.5 14t-14.5 32q0 21 14.5 35.5t35.5 14.5q19 0 33.5 -14.5t14.5 -35.5zM514 800q0 -18 -13.5 -32t-30.5 -14q-20 0 -36 14t-16 32q0 21 16 35.5t36 14.5q17 0 30.5 -14.5t13.5 -35.5zM762 350q0 -68 -22.5 -133.5
t-67.5 -117t-113 -83t-158 -31.5t-157.5 31.5t-113 83t-68 117t-22.5 133.5q0 69 22.5 134.5t68 116.5t113 82.5t157.5 31.5t158 -31.5t113 -82.5t67.5 -116.5t22.5 -134.5zM204 266q14 -51 36 -97.5t51 -81t63.5 -55t73.5 -20.5q31 0 61 13q49 21 78.5 64.5t42 100t9 120
t-19.5 124.5q-14 51 -36.5 97.5t-51.5 81t-64 55t-74 20.5q-30 0 -60 -13q-50 -21 -79.5 -64.5t-41.5 -100t-8.5 -120t20.5 -124.5z" />
    <glyph glyph-name="multiply" unicode="&#xd7;" horiz-adv-x="322" 
d="M161 329l-120 -120l-21 22l119 119l-116 117l21 21l117 -116l120 120l21 -22l-120 -120l117 -117l-22 -21z" />
    <glyph glyph-name="Oslash" unicode="&#xd8;" 
d="M762 350q0 -68 -22.5 -133.5t-67.5 -117t-113 -83t-158 -31.5q-42 0 -78.5 7t-68.5 20l-6 -12h-41l13 28q-45 24 -79 59t-56.5 77.5t-33.5 90t-11 95.5q0 69 22.5 134.5t68 116.5t113 82.5t157.5 31.5q42 0 78.5 -7t68.5 -20l6 12h41l-13 -28q45 -24 78.5 -59t56 -77.5
t34 -90t11.5 -95.5zM204 266q22 -82 63 -145l244 492q-29 35 -64 55t-74 20q-30 0 -60 -13q-50 -21 -79.5 -64.5t-41.5 -100t-8.5 -120t20.5 -124.5zM291 87q29 -35 64 -55t74 -20q30 0 60 13q49 21 78.5 64.5t42 100t9 120t-19.5 124.5q-11 40 -27.5 77t-36.5 68z" />
    <glyph glyph-name="Ugrave" unicode="&#xd9;" horiz-adv-x="723" 
d="M424 778l-14 -15l-111 89l41 46zM534 693q-3 0 -3 4v3h170v-3q0 -4 -3 -4q-6 -2 -17.5 -5t-23.5 -9.5t-20.5 -19t-8.5 -34.5v-375q0 -69 -22.5 -120t-59.5 -85t-84.5 -51t-96.5 -17q-50 0 -98.5 17.5t-86.5 51.5t-61 85t-23 119v375q0 22 -8.5 34.5t-20 19t-23 9.5
t-17.5 5q-3 0 -3 4v3h284v-3q0 -4 -3 -4q-6 -2 -17.5 -5t-23 -9.5t-20 -19t-8.5 -34.5v-375q0 -59 15 -102t39.5 -71.5t56.5 -42.5t65 -14q35 0 69.5 15t61.5 44t43.5 72t16.5 99v375q0 22 -8.5 34.5t-20 19t-23 9.5t-17.5 5z" />
    <glyph glyph-name="Uacute" unicode="&#xda;" horiz-adv-x="723" 
d="M425 851l-114 -89l-14 16l86 119zM534 693q-3 0 -3 4v3h170v-3q0 -4 -3 -4q-6 -2 -17.5 -5t-23.5 -9.5t-20.5 -19t-8.5 -34.5v-375q0 -69 -22.5 -120t-59.5 -85t-84.5 -51t-96.5 -17q-50 0 -98.5 17.5t-86.5 51.5t-61 85t-23 119v375q0 22 -8.5 34.5t-20 19t-23 9.5
t-17.5 5q-3 0 -3 4v3h284v-3q0 -4 -3 -4q-6 -2 -17.5 -5t-23 -9.5t-20 -19t-8.5 -34.5v-375q0 -59 15 -102t39.5 -71.5t56.5 -42.5t65 -14q35 0 69.5 15t61.5 44t43.5 72t16.5 99v375q0 22 -8.5 34.5t-20 19t-23 9.5t-17.5 5z" />
    <glyph glyph-name="Ucircumflex" unicode="&#xdb;" horiz-adv-x="723" 
d="M361 816l-58 -53h-25l56 88h55l56 -88h-26zM534 693q-3 0 -3 4v3h170v-3q0 -4 -3 -4q-6 -2 -17.5 -5t-23.5 -9.5t-20.5 -19t-8.5 -34.5v-375q0 -69 -22.5 -120t-59.5 -85t-84.5 -51t-96.5 -17q-50 0 -98.5 17.5t-86.5 51.5t-61 85t-23 119v375q0 22 -8.5 34.5t-20 19
t-23 9.5t-17.5 5q-3 0 -3 4v3h284v-3q0 -4 -3 -4q-6 -2 -17.5 -5t-23 -9.5t-20 -19t-8.5 -34.5v-375q0 -59 15 -102t39.5 -71.5t56.5 -42.5t65 -14q35 0 69.5 15t61.5 44t43.5 72t16.5 99v375q0 22 -8.5 34.5t-20 19t-23 9.5t-17.5 5z" />
    <glyph glyph-name="Udieresis" unicode="&#xdc;" horiz-adv-x="723" 
d="M346 800q0 -18 -14.5 -32t-33.5 -14q-21 0 -35 14t-14 32q0 21 14 35.5t35 14.5q19 0 33.5 -14.5t14.5 -35.5zM474 800q0 -18 -13.5 -32t-29.5 -14q-21 0 -37 14t-16 32q0 21 16 35.5t37 14.5q16 0 29.5 -14.5t13.5 -35.5zM534 693q-3 0 -3 4v3h170v-3q0 -4 -3 -4
q-6 -2 -17.5 -5t-23.5 -9.5t-20.5 -19t-8.5 -34.5v-375q0 -69 -22.5 -120t-59.5 -85t-84.5 -51t-96.5 -17q-50 0 -98.5 17.5t-86.5 51.5t-61 85t-23 119v375q0 22 -8.5 34.5t-20 19t-23 9.5t-17.5 5q-3 0 -3 4v3h284v-3q0 -4 -3 -4q-6 -2 -17.5 -5t-23 -9.5t-20 -19
t-8.5 -34.5v-375q0 -59 15 -102t39.5 -71.5t56.5 -42.5t65 -14q35 0 69.5 15t61.5 44t43.5 72t16.5 99v375q0 22 -8.5 34.5t-20 19t-23 9.5t-17.5 5z" />
    <glyph glyph-name="Yacute" unicode="&#xdd;" horiz-adv-x="698" 
d="M689 692q-6 -2 -19.5 -7.5t-29.5 -15.5t-33.5 -25t-30.5 -36l2 4l-169 -290v-246q0 -22 8.5 -34.5t20 -19t23.5 -9.5t18 -5q2 -2 2 -4v-4h-285q0 2 1 4q2 3 3 4q6 2 17.5 5t23 9.5t20 19t8.5 34.5v225l-178 326q-13 20 -25 32t-22.5 18.5t-19.5 9.5l-15 5q-2 1 -2.5 4
t-0.5 4h275v-4q0 -4 -3 -4q-6 -2 -13.5 -6t-13.5 -11t-8 -18t5 -27l151 -274l157 268q5 15 1.5 26.5t-10 20t-15 14t-13.5 7.5q-1 0 -3 4q-1 2 -1 4h115h62q0 -1 -0.5 -4t-2.5 -4zM413 851l-114 -89l-14 16l86 119z" />
    <glyph glyph-name="Thorn" unicode="&#xde;" horiz-adv-x="620" 
d="M238 558v-392h55q49 0 81.5 29t49 72.5t16.5 94.5t-16.5 94.5t-49 72.5t-81.5 29h-55zM585 362q0 -42 -16 -81.5t-48.5 -70.5t-81 -50t-112.5 -19h-89v-65q0 -22 8.5 -34.5t20.5 -19t23.5 -9.5t17.5 -5q3 -3 3 -4v-4h-285v4q0 2 3 4q6 2 17.5 5t23 9.5t20 19t8.5 34.5
v549q0 22 -8.5 34.5t-20 19t-23 9.5t-17.5 5q-3 0 -3 4v4h72v-1h213v-4q0 -4 -3 -4q-6 -2 -17.5 -5t-23.5 -9.5t-20.5 -19t-8.5 -34.5v-41h89q64 0 112.5 -19t81 -50t48.5 -71t16 -81z" />
    <glyph glyph-name="germandbls" unicode="&#xdf;" horiz-adv-x="648" 
d="M30 8q6 2 17.5 5t23 9.5t20 19t8.5 34.5v395q0 48 9 91.5t30.5 76.5t58.5 52t93 19q27 0 65 -6t72 -22t58 -42.5t24 -67.5q0 -31 -11.5 -53t-29.5 -36.5t-38 -24t-38 -16.5t-29.5 -13t-11.5 -14q0 -13 20 -22t50 -18.5t64.5 -22t64.5 -33t50 -52.5t20 -79
q0 -49 -19.5 -85.5t-52 -61t-74.5 -36.5t-87 -12q-22 0 -42.5 6.5t-36.5 17.5t-26 27t-10 34q0 26 13 39.5t29 13.5q20 0 34 -18q10 -14 8 -29.5t-4.5 -29t1 -22.5t26.5 -9q18 0 36 11.5t31.5 32.5t22 51.5t8.5 69.5q0 37 -11.5 62.5t-28.5 43.5t-36.5 31t-36.5 26t-28.5 28
t-11.5 36q0 18 9 33t20.5 32.5t20.5 40t9 56.5q0 49 -22 78.5t-57 29.5q-28 0 -41.5 -22.5t-19 -57t-5 -76t0.5 -79.5v-112l1 -225v-113h-214q0 2 1 4q2 3 3 4z" />
    <glyph glyph-name="agrave" unicode="&#xe0;" horiz-adv-x="659" 
d="M392 778l-13 -15l-112 89l41 46zM640 51q-5 -10 -12.5 -21t-20 -20t-29.5 -15t-40 -6q-18 0 -39.5 4t-40.5 15.5t-33 33t-17 56.5q-26 -56 -76.5 -82.5t-106.5 -26.5q-37 0 -72 11.5t-62.5 33t-44 53.5t-16.5 74q0 43 16 72.5t41.5 50t59 34.5t68.5 26.5t68.5 27t60.5 35
t44 50t19 73.5q-1 28 -6 55.5t-17.5 49t-34.5 35t-57 13.5q-34 0 -60 -8.5t-44 -21.5t-27.5 -30t-9.5 -33q0 -7 8.5 -13t19 -13.5t19.5 -18.5t9 -28q0 -23 -17.5 -36.5t-38.5 -13.5q-22 0 -40.5 16t-18.5 54q0 40 17.5 71.5t46 53.5t64 34t71.5 12q123 0 190 -57.5
t67 -161.5l-1 -423q0 -6 0.5 -14t2.5 -16t6.5 -13.5t13.5 -5.5q17 0 30.5 16t19.5 30zM175 167q0 -34 8 -58.5t21.5 -40.5t31.5 -24t37 -8q24 0 48 11t43 32.5t31 53t12 71.5l1 197v30q-16 -33 -39 -53t-49 -35.5t-52 -28.5t-46.5 -31.5t-33.5 -46t-13 -69.5z" />
    <glyph glyph-name="aacute" unicode="&#xe1;" horiz-adv-x="659" 
d="M393 851l-114 -89l-13 16l86 119zM640 51q-5 -10 -12.5 -21t-20 -20t-29.5 -15t-40 -6q-18 0 -39.5 4t-40.5 15.5t-33 33t-17 56.5q-26 -56 -76.5 -82.5t-106.5 -26.5q-37 0 -72 11.5t-62.5 33t-44 53.5t-16.5 74q0 43 16 72.5t41.5 50t59 34.5t68.5 26.5t68.5 27
t60.5 35t44 50t19 73.5q-1 28 -6 55.5t-17.5 49t-34.5 35t-57 13.5q-34 0 -60 -8.5t-44 -21.5t-27.5 -30t-9.5 -33q0 -7 8.5 -13t19 -13.5t19.5 -18.5t9 -28q0 -23 -17.5 -36.5t-38.5 -13.5q-22 0 -40.5 16t-18.5 54q0 40 17.5 71.5t46 53.5t64 34t71.5 12q123 0 190 -57.5
t67 -161.5l-1 -423q0 -6 0.5 -14t2.5 -16t6.5 -13.5t13.5 -5.5q17 0 30.5 16t19.5 30zM175 167q0 -34 8 -58.5t21.5 -40.5t31.5 -24t37 -8q24 0 48 11t43 32.5t31 53t12 71.5l1 197v30q-16 -33 -39 -53t-49 -35.5t-52 -28.5t-46.5 -31.5t-33.5 -46t-13 -69.5z" />
    <glyph glyph-name="acircumflex" unicode="&#xe2;" horiz-adv-x="659" 
d="M330 816l-58 -53h-26l56 88h55l56 -88h-25zM640 51q-5 -10 -12.5 -21t-20 -20t-29.5 -15t-40 -6q-18 0 -39.5 4t-40.5 15.5t-33 33t-17 56.5q-26 -56 -76.5 -82.5t-106.5 -26.5q-37 0 -72 11.5t-62.5 33t-44 53.5t-16.5 74q0 43 16 72.5t41.5 50t59 34.5t68.5 26.5
t68.5 27t60.5 35t44 50t19 73.5q-1 28 -6 55.5t-17.5 49t-34.5 35t-57 13.5q-34 0 -60 -8.5t-44 -21.5t-27.5 -30t-9.5 -33q0 -7 8.5 -13t19 -13.5t19.5 -18.5t9 -28q0 -23 -17.5 -36.5t-38.5 -13.5q-22 0 -40.5 16t-18.5 54q0 40 17.5 71.5t46 53.5t64 34t71.5 12
q123 0 190 -57.5t67 -161.5l-1 -423q0 -6 0.5 -14t2.5 -16t6.5 -13.5t13.5 -5.5q17 0 30.5 16t19.5 30zM175 167q0 -34 8 -58.5t21.5 -40.5t31.5 -24t37 -8q24 0 48 11t43 32.5t31 53t12 71.5l1 197v30q-16 -33 -39 -53t-49 -35.5t-52 -28.5t-46.5 -31.5t-33.5 -46
t-13 -69.5z" />
    <glyph glyph-name="atilde" unicode="&#xe3;" horiz-adv-x="659" 
d="M440 811q-5 -6 -11.5 -15.5t-14.5 -18.5t-18.5 -15.5t-22.5 -6.5q-15 0 -28 7t-25 16t-23.5 16t-24.5 7q-8 0 -17 -4t-20 -15l-15 8q6 7 13 17t15.5 19.5t19.5 16t24 6.5q12 0 24 -7t24 -15.5t24.5 -15.5t26.5 -7q18 0 36 17zM640 51q-5 -10 -12.5 -21t-20 -20t-29.5 -15
t-40 -6q-18 0 -39.5 4t-40.5 15.5t-33 33t-17 56.5q-26 -56 -76.5 -82.5t-106.5 -26.5q-37 0 -72 11.5t-62.5 33t-44 53.5t-16.5 74q0 43 16 72.5t41.5 50t59 34.5t68.5 26.5t68.5 27t60.5 35t44 50t19 73.5q-1 28 -6 55.5t-17.5 49t-34.5 35t-57 13.5q-34 0 -60 -8.5
t-44 -21.5t-27.5 -30t-9.5 -33q0 -7 8.5 -13t19 -13.5t19.5 -18.5t9 -28q0 -23 -17.5 -36.5t-38.5 -13.5q-22 0 -40.5 16t-18.5 54q0 40 17.5 71.5t46 53.5t64 34t71.5 12q123 0 190 -57.5t67 -161.5l-1 -423q0 -6 0.5 -14t2.5 -16t6.5 -13.5t13.5 -5.5q17 0 30.5 16
t19.5 30zM175 167q0 -34 8 -58.5t21.5 -40.5t31.5 -24t37 -8q24 0 48 11t43 32.5t31 53t12 71.5l1 197v30q-16 -33 -39 -53t-49 -35.5t-52 -28.5t-46.5 -31.5t-33.5 -46t-13 -69.5z" />
    <glyph glyph-name="adieresis" unicode="&#xe4;" horiz-adv-x="659" 
d="M314 800q0 -18 -14.5 -32t-33.5 -14q-20 0 -34.5 14t-14.5 32q0 21 14.5 35.5t34.5 14.5q19 0 33.5 -14.5t14.5 -35.5zM442 800q0 -18 -13 -32t-30 -14q-21 0 -37 14t-16 32q0 21 16 35.5t37 14.5q17 0 30 -14.5t13 -35.5zM640 51q-5 -10 -12.5 -21t-20 -20t-29.5 -15
t-40 -6q-18 0 -39.5 4t-40.5 15.5t-33 33t-17 56.5q-26 -56 -76.5 -82.5t-106.5 -26.5q-37 0 -72 11.5t-62.5 33t-44 53.5t-16.5 74q0 43 16 72.5t41.5 50t59 34.5t68.5 26.5t68.5 27t60.5 35t44 50t19 73.5q-1 28 -6 55.5t-17.5 49t-34.5 35t-57 13.5q-34 0 -60 -8.5
t-44 -21.5t-27.5 -30t-9.5 -33q0 -7 8.5 -13t19 -13.5t19.5 -18.5t9 -28q0 -23 -17.5 -36.5t-38.5 -13.5q-22 0 -40.5 16t-18.5 54q0 40 17.5 71.5t46 53.5t64 34t71.5 12q123 0 190 -57.5t67 -161.5l-1 -423q0 -6 0.5 -14t2.5 -16t6.5 -13.5t13.5 -5.5q17 0 30.5 16
t19.5 30zM175 167q0 -34 8 -58.5t21.5 -40.5t31.5 -24t37 -8q24 0 48 11t43 32.5t31 53t12 71.5l1 197v30q-16 -33 -39 -53t-49 -35.5t-52 -28.5t-46.5 -31.5t-33.5 -46t-13 -69.5z" />
    <glyph glyph-name="aring" unicode="&#xe5;" horiz-adv-x="659" 
d="M403 790q0 -29 -21 -49.5t-51 -20.5q-32 0 -53.5 20.5t-21.5 49.5q0 30 22 50t53 20q30 0 51 -21t21 -49zM331 846q-20 0 -29.5 -17.5t-9.5 -38t9.5 -38t29.5 -17.5q19 0 28.5 17.5t9.5 38t-9.5 38t-28.5 17.5zM640 51q-5 -10 -12.5 -21t-20 -20t-29.5 -15t-40 -6
q-18 0 -39.5 4t-40.5 15.5t-33 33t-17 56.5q-26 -56 -76.5 -82.5t-106.5 -26.5q-37 0 -72 11.5t-62.5 33t-44 53.5t-16.5 74q0 43 16 72.5t41.5 50t59 34.5t68.5 26.5t68.5 27t60.5 35t44 50t19 73.5q-1 28 -6 55.5t-17.5 49t-34.5 35t-57 13.5q-34 0 -60 -8.5t-44 -21.5
t-27.5 -30t-9.5 -33q0 -7 8.5 -13t19 -13.5t19.5 -18.5t9 -28q0 -23 -17.5 -36.5t-38.5 -13.5q-22 0 -40.5 16t-18.5 54q0 40 17.5 71.5t46 53.5t64 34t71.5 12q123 0 190 -57.5t67 -161.5l-1 -423q0 -6 0.5 -14t2.5 -16t6.5 -13.5t13.5 -5.5q17 0 30.5 16t19.5 30zM175 167
q0 -34 8 -58.5t21.5 -40.5t31.5 -24t37 -8q24 0 48 11t43 32.5t31 53t12 71.5l1 197v30q-16 -33 -39 -53t-49 -35.5t-52 -28.5t-46.5 -31.5t-33.5 -46t-13 -69.5z" />
    <glyph glyph-name="ae" unicode="&#xe6;" horiz-adv-x="1132" 
d="M1081 230q-12 -51 -35.5 -95.5t-61 -78t-89.5 -52.5t-120 -19q-59 0 -108 13.5t-88.5 38t-69.5 57.5t-51 72q-9 -44 -31.5 -76t-54 -53t-68.5 -31.5t-74 -10.5q-39 0 -75 10.5t-64 31.5t-45 52t-17 71q0 43 16 72.5t43 50t61 35t69.5 27.5t70 27t61.5 35t44.5 51.5
t18.5 74.5q-2 28 -7 54.5t-17.5 47.5t-34.5 34t-56 13t-60 -8.5t-44 -22t-27.5 -30.5t-9.5 -33q0 -7 8.5 -12.5t19 -13.5t19.5 -19t9 -28q0 -23 -17.5 -36.5t-38.5 -13.5q-23 0 -41.5 16.5t-18.5 54.5q0 40 17.5 71.5t46 53.5t64.5 33.5t72 11.5q78 0 133.5 -23t86.5 -68
q45 46 109 73t149 27q70 0 121.5 -19t88.5 -52t61.5 -77.5t40.5 -94.5l4 -13l1 -1q-40 -40 -84.5 -62t-90.5 -34t-92.5 -17.5t-90.5 -13t-84 -20.5t-73 -40l6 -21q16 -45 40 -85.5t55 -70.5t68.5 -47.5t80.5 -17.5q45 0 83 16t68 44t49.5 65.5t26.5 81.5zM686 672
q-47 -20 -76.5 -60t-43 -91t-12 -109.5t15.5 -115.5q40 30 88 43t99.5 21t104 15.5t102.5 27.5l-3 9q-12 55 -33 104t-48.5 86.5t-62 59.5t-73.5 22q-28 0 -58 -12zM174 166q0 -32 8.5 -55.5t23 -39t34 -23t40.5 -7.5q26 0 52.5 10.5t49 31t39 50.5t21.5 68q-28 71 -28 151
v81q-15 -33 -39 -54t-50.5 -36.5t-53.5 -29t-48.5 -32t-35 -45.5t-13.5 -70z" />
    <glyph glyph-name="ccedilla" unicode="&#xe7;" horiz-adv-x="666" 
d="M407 -125q0 -26 -21 -45t-57 -19q-17 0 -30 4.5t-22 10.5q-11 7 -18 16l16 40q0 -17 5 -27.5t11.5 -16t13 -7.5t11.5 -2q12 0 21.5 14.5t10 31.5t-11.5 31.5t-43 14.5q0 2 2.5 10t6 18.5l7.5 22.5l7 21q-69 14 -121 49t-86.5 83.5t-51.5 106.5t-17 118q0 97 33 166
t85 113t116.5 65t126.5 21q46 0 87 -11t71.5 -32t48.5 -50.5t18 -66.5q0 -42 -21.5 -61t-46.5 -19q-23 0 -40.5 13.5t-17.5 37.5q0 18 8.5 29t19 18.5t19.5 14.5t9 17q0 18 -11.5 34t-31 28t-45.5 19t-55 7q-70 0 -117.5 -28.5t-75.5 -75t-36.5 -106.5t-1 -122t30 -122
t58.5 -106.5t83 -75t103 -28.5q45 0 90 20.5t82 61.5l8 -9q-17 -27 -42.5 -48.5t-56.5 -36.5t-66 -23.5t-71 -8.5q-16 0 -31 1t-30 3l-24 -54q37 -1 64 -16t27 -44z" />
    <glyph glyph-name="egrave" unicode="&#xe8;" horiz-adv-x="758" 
d="M708 230q-12 -51 -35.5 -95.5t-61 -78t-89.5 -52.5t-121 -19q-90 0 -157.5 31.5t-113 83t-68 117t-22.5 133.5q0 69 22.5 134.5t68 116.5t113 82.5t157.5 31.5q70 0 121.5 -19t89 -52t62 -77.5t40.5 -94.5q2 -8 4 -13v-1q-40 -40 -84.5 -62t-90.5 -34t-92.5 -17.5
t-90 -13t-84 -20.5t-73.5 -40q2 -5 3.5 -10.5t3.5 -10.5q16 -45 40 -85.5t54.5 -70.5t68 -47.5t80.5 -17.5q45 0 83.5 16t68 44t49 65.5t26.5 81.5zM312 672q-47 -20 -76.5 -60t-43 -91t-12 -109.5t15.5 -115.5q40 30 88 43t99.5 21t104 15.5t102.5 27.5l-2 9
q-13 55 -33.5 104t-48.5 86.5t-62 59.5t-74 22q-28 0 -58 -12zM442 778l-14 -15l-111 89l41 46z" />
    <glyph glyph-name="eacute" unicode="&#xe9;" horiz-adv-x="758" 
d="M708 230q-12 -51 -35.5 -95.5t-61 -78t-89.5 -52.5t-121 -19q-90 0 -157.5 31.5t-113 83t-68 117t-22.5 133.5q0 69 22.5 134.5t68 116.5t113 82.5t157.5 31.5q70 0 121.5 -19t89 -52t62 -77.5t40.5 -94.5q2 -8 4 -13v-1q-40 -40 -84.5 -62t-90.5 -34t-92.5 -17.5
t-90 -13t-84 -20.5t-73.5 -40q2 -5 3.5 -10.5t3.5 -10.5q16 -45 40 -85.5t54.5 -70.5t68 -47.5t80.5 -17.5q45 0 83.5 16t68 44t49 65.5t26.5 81.5zM312 672q-47 -20 -76.5 -60t-43 -91t-12 -109.5t15.5 -115.5q40 30 88 43t99.5 21t104 15.5t102.5 27.5l-2 9
q-13 55 -33.5 104t-48.5 86.5t-62 59.5t-74 22q-28 0 -58 -12zM443 851l-114 -89l-14 16l86 119z" />
    <glyph glyph-name="ecircumflex" unicode="&#xea;" horiz-adv-x="758" 
d="M708 230q-12 -51 -35.5 -95.5t-61 -78t-89.5 -52.5t-121 -19q-90 0 -157.5 31.5t-113 83t-68 117t-22.5 133.5q0 69 22.5 134.5t68 116.5t113 82.5t157.5 31.5q70 0 121.5 -19t89 -52t62 -77.5t40.5 -94.5q2 -8 4 -13v-1q-40 -40 -84.5 -62t-90.5 -34t-92.5 -17.5
t-90 -13t-84 -20.5t-73.5 -40q2 -5 3.5 -10.5t3.5 -10.5q16 -45 40 -85.5t54.5 -70.5t68 -47.5t80.5 -17.5q45 0 83.5 16t68 44t49 65.5t26.5 81.5zM312 672q-47 -20 -76.5 -60t-43 -91t-12 -109.5t15.5 -115.5q40 30 88 43t99.5 21t104 15.5t102.5 27.5l-2 9
q-13 55 -33.5 104t-48.5 86.5t-62 59.5t-74 22q-28 0 -58 -12zM379 816l-58 -53h-25l55 88h56l56 -88h-26z" />
    <glyph glyph-name="edieresis" unicode="&#xeb;" horiz-adv-x="758" 
d="M708 230q-12 -51 -35.5 -95.5t-61 -78t-89.5 -52.5t-121 -19q-90 0 -157.5 31.5t-113 83t-68 117t-22.5 133.5q0 69 22.5 134.5t68 116.5t113 82.5t157.5 31.5q70 0 121.5 -19t89 -52t62 -77.5t40.5 -94.5q2 -8 4 -13v-1q-40 -40 -84.5 -62t-90.5 -34t-92.5 -17.5
t-90 -13t-84 -20.5t-73.5 -40q2 -5 3.5 -10.5t3.5 -10.5q16 -45 40 -85.5t54.5 -70.5t68 -47.5t80.5 -17.5q45 0 83.5 16t68 44t49 65.5t26.5 81.5zM312 672q-47 -20 -76.5 -60t-43 -91t-12 -109.5t15.5 -115.5q40 30 88 43t99.5 21t104 15.5t102.5 27.5l-2 9
q-13 55 -33.5 104t-48.5 86.5t-62 59.5t-74 22q-28 0 -58 -12zM364 800q0 -18 -14.5 -32t-33.5 -14q-21 0 -35.5 14t-14.5 32q0 21 14.5 35.5t35.5 14.5q19 0 33.5 -14.5t14.5 -35.5zM492 800q0 -18 -13.5 -32t-30.5 -14q-20 0 -36 14t-16 32q0 21 16 35.5t36 14.5
q17 0 30.5 -14.5t13.5 -35.5z" />
    <glyph glyph-name="igrave" unicode="&#xec;" horiz-adv-x="337" 
d="M231 778l-14 -15l-111 89l41 46zM307 693q-6 -2 -17.5 -5t-23 -9.5t-20 -19t-8.5 -34.5v-549q0 -22 8.5 -34.5t20 -19t23 -9.5t17.5 -5q3 -3 3 -4v-4h-284v4q0 2 3 4q6 2 17.5 5t23 9.5t20 19t8.5 34.5v549q0 22 -8.5 34.5t-20 19t-23 9.5t-17.5 5q-3 0 -3 4v3h284v-3
q0 -4 -3 -4z" />
    <glyph glyph-name="iacute" unicode="&#xed;" horiz-adv-x="337" 
d="M232 851l-114 -89l-14 16l86 119zM307 693q-6 -2 -17.5 -5t-23 -9.5t-20 -19t-8.5 -34.5v-549q0 -22 8.5 -34.5t20 -19t23 -9.5t17.5 -5q3 -3 3 -4v-4h-284v4q0 2 3 4q6 2 17.5 5t23 9.5t20 19t8.5 34.5v549q0 22 -8.5 34.5t-20 19t-23 9.5t-17.5 5q-3 0 -3 4v3h284v-3
q0 -4 -3 -4z" />
    <glyph glyph-name="icircumflex" unicode="&#xee;" horiz-adv-x="337" 
d="M168 816l-58 -53h-25l56 88h55l56 -88h-26zM307 693q-6 -2 -17.5 -5t-23 -9.5t-20 -19t-8.5 -34.5v-549q0 -22 8.5 -34.5t20 -19t23 -9.5t17.5 -5q3 -3 3 -4v-4h-284v4q0 2 3 4q6 2 17.5 5t23 9.5t20 19t8.5 34.5v549q0 22 -8.5 34.5t-20 19t-23 9.5t-17.5 5q-3 0 -3 4v3
h284v-3q0 -4 -3 -4z" />
    <glyph glyph-name="idieresis" unicode="&#xef;" horiz-adv-x="337" 
d="M153 800q0 -18 -14.5 -32t-33.5 -14q-21 0 -35 14t-14 32q0 21 14 35.5t35 14.5q19 0 33.5 -14.5t14.5 -35.5zM281 800q0 -18 -13.5 -32t-29.5 -14q-21 0 -37 14t-16 32q0 21 16 35.5t37 14.5q16 0 29.5 -14.5t13.5 -35.5zM307 693q-6 -2 -17.5 -5t-23 -9.5t-20 -19
t-8.5 -34.5v-549q0 -22 8.5 -34.5t20 -19t23 -9.5t17.5 -5q3 -3 3 -4v-4h-284v4q0 2 3 4q6 2 17.5 5t23 9.5t20 19t8.5 34.5v549q0 22 -8.5 34.5t-20 19t-23 9.5t-17.5 5q-3 0 -3 4v3h284v-3q0 -4 -3 -4z" />
    <glyph glyph-name="ntilde" unicode="&#xf1;" horiz-adv-x="766" 
d="M747 51q-5 -11 -12.5 -22t-20.5 -20t-31.5 -14.5t-43.5 -5.5q-20 0 -43 5.5t-42 20.5t-31.5 41t-12.5 68v275q0 48 -3.5 98.5t-16.5 91.5t-37.5 67t-66.5 26q-44 0 -72 -23.5t-45 -60.5t-23.5 -82t-6.5 -88v-352q0 -22 8.5 -34.5t20.5 -19.5t23.5 -9.5t17.5 -4.5
q3 -3 3 -4v-4h-285q0 6 1 7t2 1q6 2 17.5 4.5t23 9.5t20 19.5t8.5 34.5v540q0 31 -8.5 45.5t-19.5 14.5q-23 0 -43 -43l-23 11q14 33 42 48.5t59 15.5q22 0 43.5 -7t39.5 -21.5t30.5 -35t17.5 -47.5q9 23 22.5 43.5t32 36t43 24.5t55.5 9q83 0 134.5 -25.5t80 -69
t38.5 -101.5t10 -123v-327q0 -6 0.5 -14t3 -14.5t7.5 -11.5t13 -5q17 0 30 14.5t19 28.5zM493 811q-5 -6 -11.5 -15.5t-14.5 -18.5t-18 -15.5t-22 -6.5q-15 0 -28.5 7t-25.5 16t-23.5 16t-23.5 7q-8 0 -17 -4t-20 -15l-16 8q6 7 13 17t16 19.5t20 16t24 6.5q12 0 23.5 -7
t23.5 -15.5t24.5 -15.5t26.5 -7q18 0 36 17z" />
    <glyph glyph-name="ograve" unicode="&#xf2;" 
d="M464 778l-14 -15l-111 89l41 46zM401 715q90 0 157.5 -25t113 -65.5t68 -93t22.5 -106.5t-22.5 -106.5t-68 -93t-113 -65.5t-157.5 -25t-157.5 25t-113 65.5t-68 93t-22.5 106.5t22.5 106.5t68 93t113 65.5t157.5 25zM309 674q-60 -25 -90.5 -73t-37.5 -105t8.5 -116.5
t47.5 -108.5t78 -80t102 -31q38 0 76 16q60 25 91 73t37 105t-9 116.5t-47 108.5t-78.5 80t-101.5 31q-38 0 -76 -16zM636 38q-38 -33 -71.5 -45.5t-64.5 -12.5q-30 0 -57 8t-53 18t-50.5 18t-49.5 8q-22 0 -43 -8.5t-44 -28.5l-9 12q46 43 86 59t76 16q32 0 61 -9t55 -19.5
t50 -19.5t46 -9q16 0 30.5 5.5t28.5 19.5z" />
    <glyph glyph-name="oacute" unicode="&#xf3;" 
d="M465 851l-114 -89l-14 16l86 119zM401 715q90 0 157.5 -25t113 -65.5t68 -93t22.5 -106.5t-22.5 -106.5t-68 -93t-113 -65.5t-157.5 -25t-157.5 25t-113 65.5t-68 93t-22.5 106.5t22.5 106.5t68 93t113 65.5t157.5 25zM309 674q-60 -25 -90.5 -73t-37.5 -105t8.5 -116.5
t47.5 -108.5t78 -80t102 -31q38 0 76 16q60 25 91 73t37 105t-9 116.5t-47 108.5t-78.5 80t-101.5 31q-38 0 -76 -16zM636 38q-38 -33 -71.5 -45.5t-64.5 -12.5q-30 0 -57 8t-53 18t-50.5 18t-49.5 8q-22 0 -43 -8.5t-44 -28.5l-9 12q46 43 86 59t76 16q32 0 61 -9t55 -19.5
t50 -19.5t46 -9q16 0 30.5 5.5t28.5 19.5z" />
    <glyph glyph-name="ocircumflex" unicode="&#xf4;" 
d="M401 816l-58 -53h-25l55 88h56l56 -88h-26zM401 715q90 0 157.5 -25t113 -65.5t68 -93t22.5 -106.5t-22.5 -106.5t-68 -93t-113 -65.5t-157.5 -25t-157.5 25t-113 65.5t-68 93t-22.5 106.5t22.5 106.5t68 93t113 65.5t157.5 25zM309 674q-60 -25 -90.5 -73t-37.5 -105
t8.5 -116.5t47.5 -108.5t78 -80t102 -31q38 0 76 16q60 25 91 73t37 105t-9 116.5t-47 108.5t-78.5 80t-101.5 31q-38 0 -76 -16zM636 38q-38 -33 -71.5 -45.5t-64.5 -12.5q-30 0 -57 8t-53 18t-50.5 18t-49.5 8q-22 0 -43 -8.5t-44 -28.5l-9 12q46 43 86 59t76 16
q32 0 61 -9t55 -19.5t50 -19.5t46 -9q16 0 30.5 5.5t28.5 19.5z" />
    <glyph glyph-name="otilde" unicode="&#xf5;" 
d="M511 811q-5 -6 -11.5 -15.5t-14.5 -18.5t-18 -15.5t-22 -6.5q-15 0 -28.5 7t-25.5 16t-23.5 16t-23.5 7q-8 0 -17 -4t-20 -15l-16 8q6 7 13 17t16 19.5t20 16t24 6.5q12 0 23.5 -7t23.5 -15.5t24.5 -15.5t26.5 -7q18 0 36 17zM401 715q90 0 157.5 -25t113 -65.5t68 -93
t22.5 -106.5t-22.5 -106.5t-68 -93t-113 -65.5t-157.5 -25t-157.5 25t-113 65.5t-68 93t-22.5 106.5t22.5 106.5t68 93t113 65.5t157.5 25zM309 674q-60 -25 -90.5 -73t-37.5 -105t8.5 -116.5t47.5 -108.5t78 -80t102 -31q38 0 76 16q60 25 91 73t37 105t-9 116.5t-47 108.5
t-78.5 80t-101.5 31q-38 0 -76 -16zM636 38q-38 -33 -71.5 -45.5t-64.5 -12.5q-30 0 -57 8t-53 18t-50.5 18t-49.5 8q-22 0 -43 -8.5t-44 -28.5l-9 12q46 43 86 59t76 16q32 0 61 -9t55 -19.5t50 -19.5t46 -9q16 0 30.5 5.5t28.5 19.5z" />
    <glyph glyph-name="odieresis" unicode="&#xf6;" 
d="M386 800q0 -18 -14.5 -32t-33.5 -14q-21 0 -35.5 14t-14.5 32q0 21 14.5 35.5t35.5 14.5q19 0 33.5 -14.5t14.5 -35.5zM514 800q0 -18 -13.5 -32t-30.5 -14q-20 0 -36 14t-16 32q0 21 16 35.5t36 14.5q17 0 30.5 -14.5t13.5 -35.5zM401 715q90 0 157.5 -25t113 -65.5
t68 -93t22.5 -106.5t-22.5 -106.5t-68 -93t-113 -65.5t-157.5 -25t-157.5 25t-113 65.5t-68 93t-22.5 106.5t22.5 106.5t68 93t113 65.5t157.5 25zM309 674q-60 -25 -90.5 -73t-37.5 -105t8.5 -116.5t47.5 -108.5t78 -80t102 -31q38 0 76 16q60 25 91 73t37 105t-9 116.5
t-47 108.5t-78.5 80t-101.5 31q-38 0 -76 -16zM636 38q-38 -33 -71.5 -45.5t-64.5 -12.5q-30 0 -57 8t-53 18t-50.5 18t-49.5 8q-22 0 -43 -8.5t-44 -28.5l-9 12q46 43 86 59t76 16q32 0 61 -9t55 -19.5t50 -19.5t46 -9q16 0 30.5 5.5t28.5 19.5z" />
    <glyph glyph-name="oslash" unicode="&#xf8;" 
d="M762 350q0 -68 -22.5 -133.5t-67.5 -117t-113 -83t-158 -31.5q-42 0 -78.5 7t-68.5 20l-6 -12h-41l13 28q-45 24 -79 59t-56.5 77.5t-33.5 90t-11 95.5q0 69 22.5 134.5t68 116.5t113 82.5t157.5 31.5q42 0 78.5 -7t68.5 -20l6 12h41l-13 -28q45 -24 78.5 -59t56 -77.5
t34 -90t11.5 -95.5zM204 266q22 -82 63 -145l244 492q-29 35 -64 55t-74 20q-30 0 -60 -13q-50 -21 -79.5 -64.5t-41.5 -100t-8.5 -120t20.5 -124.5zM291 87q29 -35 64 -55t74 -20q30 0 60 13q49 21 78.5 64.5t42 100t9 120t-19.5 124.5q-11 40 -27.5 77t-36.5 68z" />
    <glyph glyph-name="ugrave" unicode="&#xf9;" horiz-adv-x="742" 
d="M434 778l-14 -15l-111 89l41 46zM494 112q-7 -24 -20 -46t-32.5 -39t-47.5 -27t-65 -10q-77 0 -122.5 25.5t-69.5 68.5t-31 99.5t-7 117.5v321v16.5t-2 21t-7.5 18.5t-15.5 8q-8 0 -15.5 -5t-14 -12.5t-11.5 -15.5t-8 -15l-20 12q4 10 11.5 21t19 20t26 14.5t34.5 5.5
t45 -5.5t47.5 -21t37.5 -43.5t15 -74v-274q0 -48 2.5 -97t13.5 -88t33 -63.5t62 -24.5q43 0 70.5 26t43.5 64.5t21.5 81.5t5.5 76l1 393l-1 -36q0 22 -8.5 34.5t-20 19t-23 9.5t-17.5 5q-3 0 -3 4v3h213v-625q0 -26 8 -39t20 -13q11 0 22.5 11t21.5 33l22 -11
q-15 -33 -43 -48.5t-60 -15.5q-23 0 -46 8t-41.5 23.5t-30.5 37.5t-13 51z" />
    <glyph glyph-name="uacute" unicode="&#xfa;" horiz-adv-x="742" 
d="M435 851l-114 -89l-14 16l86 119zM494 112q-7 -24 -20 -46t-32.5 -39t-47.5 -27t-65 -10q-77 0 -122.5 25.5t-69.5 68.5t-31 99.5t-7 117.5v321v16.5t-2 21t-7.5 18.5t-15.5 8q-8 0 -15.5 -5t-14 -12.5t-11.5 -15.5t-8 -15l-20 12q4 10 11.5 21t19 20t26 14.5t34.5 5.5
t45 -5.5t47.5 -21t37.5 -43.5t15 -74v-274q0 -48 2.5 -97t13.5 -88t33 -63.5t62 -24.5q43 0 70.5 26t43.5 64.5t21.5 81.5t5.5 76l1 393l-1 -36q0 22 -8.5 34.5t-20 19t-23 9.5t-17.5 5q-3 0 -3 4v3h213v-625q0 -26 8 -39t20 -13q11 0 22.5 11t21.5 33l22 -11
q-15 -33 -43 -48.5t-60 -15.5q-23 0 -46 8t-41.5 23.5t-30.5 37.5t-13 51z" />
    <glyph glyph-name="ucircumflex" unicode="&#xfb;" horiz-adv-x="742" 
d="M371 816l-58 -53h-25l55 88h56l56 -88h-26zM494 112q-7 -24 -20 -46t-32.5 -39t-47.5 -27t-65 -10q-77 0 -122.5 25.5t-69.5 68.5t-31 99.5t-7 117.5v321v16.5t-2 21t-7.5 18.5t-15.5 8q-8 0 -15.5 -5t-14 -12.5t-11.5 -15.5t-8 -15l-20 12q4 10 11.5 21t19 20t26 14.5
t34.5 5.5t45 -5.5t47.5 -21t37.5 -43.5t15 -74v-274q0 -48 2.5 -97t13.5 -88t33 -63.5t62 -24.5q43 0 70.5 26t43.5 64.5t21.5 81.5t5.5 76l1 393l-1 -36q0 22 -8.5 34.5t-20 19t-23 9.5t-17.5 5q-3 0 -3 4v3h213v-625q0 -26 8 -39t20 -13q11 0 22.5 11t21.5 33l22 -11
q-15 -33 -43 -48.5t-60 -15.5q-23 0 -46 8t-41.5 23.5t-30.5 37.5t-13 51z" />
    <glyph glyph-name="udieresis" unicode="&#xfc;" horiz-adv-x="742" 
d="M356 800q0 -18 -14.5 -32t-33.5 -14q-21 0 -35.5 14t-14.5 32q0 21 14.5 35.5t35.5 14.5q19 0 33.5 -14.5t14.5 -35.5zM484 800q0 -18 -13.5 -32t-30.5 -14q-20 0 -36 14t-16 32q0 21 16 35.5t36 14.5q17 0 30.5 -14.5t13.5 -35.5zM494 112q-7 -24 -20 -46t-32.5 -39
t-47.5 -27t-65 -10q-77 0 -122.5 25.5t-69.5 68.5t-31 99.5t-7 117.5v321v16.5t-2 21t-7.5 18.5t-15.5 8q-8 0 -15.5 -5t-14 -12.5t-11.5 -15.5t-8 -15l-20 12q4 10 11.5 21t19 20t26 14.5t34.5 5.5t45 -5.5t47.5 -21t37.5 -43.5t15 -74v-274q0 -48 2.5 -97t13.5 -88
t33 -63.5t62 -24.5q43 0 70.5 26t43.5 64.5t21.5 81.5t5.5 76l1 393l-1 -36q0 22 -8.5 34.5t-20 19t-23 9.5t-17.5 5q-3 0 -3 4v3h213v-625q0 -26 8 -39t20 -13q11 0 22.5 11t21.5 33l22 -11q-15 -33 -43 -48.5t-60 -15.5q-23 0 -46 8t-41.5 23.5t-30.5 37.5t-13 51z" />
    <glyph glyph-name="yacute" unicode="&#xfd;" horiz-adv-x="687" 
d="M407 851l-114 -89l-13 16l86 119zM628 700v-419q0 -61 -17 -115.5t-52.5 -95.5t-91 -65t-131.5 -24q-45 0 -83.5 11t-67.5 31t-45.5 48t-16.5 62q0 36 17.5 52t37.5 16t35.5 -12.5t15.5 -34.5q0 -13 -5 -22.5t-11.5 -17t-11.5 -14t-5 -13.5q0 -38 38 -60t98 -22
q63 0 95 24t45.5 66t14.5 98.5t1 121.5v50q-8 -26 -21 -50t-34 -42.5t-49.5 -30t-66.5 -11.5q-77 0 -120.5 26.5t-65.5 66.5t-27 88t-5 91v133q0 6 -1 14.5t-3.5 16.5t-7.5 13.5t-13 5.5t-15.5 -5t-14 -12.5t-11.5 -15.5t-8 -15l-20 12q4 10 11.5 21t19 20t27.5 14.5t39 5.5
q20 0 44.5 -6t45.5 -21.5t35 -42.5t14 -69v-127q0 -30 2 -62.5t11 -59.5t28.5 -44.5t54.5 -17.5q45 0 74 27t46 65.5t23.5 82t6.5 76.5l1 -1v150l-1 -36q0 22 -8.5 34.5t-20 19t-23 9.5t-17.5 5q-3 0 -3 4v3h213z" />
    <glyph glyph-name="thorn" unicode="&#xfe;" horiz-adv-x="620" 
d="M238 558v-392h55q49 0 81.5 29t49 72.5t16.5 94.5t-16.5 94.5t-49 72.5t-81.5 29h-55zM585 362q0 -42 -16 -81.5t-48.5 -70.5t-81 -50t-112.5 -19h-89v-65q0 -22 8.5 -34.5t20.5 -19t23.5 -9.5t17.5 -5q3 -3 3 -4v-4h-285v4q0 2 3 4q6 2 17.5 5t23 9.5t20 19t8.5 34.5
v549q0 22 -8.5 34.5t-20 19t-23 9.5t-17.5 5q-3 0 -3 4v4h72v-1h213v-4q0 -4 -3 -4q-6 -2 -17.5 -5t-23.5 -9.5t-20.5 -19t-8.5 -34.5v-41h89q64 0 112.5 -19t81 -50t48.5 -71t16 -81z" />
    <glyph glyph-name="ydieresis" unicode="&#xff;" horiz-adv-x="687" 
d="M328 800q0 -18 -14.5 -32t-33.5 -14q-20 0 -34.5 14t-14.5 32q0 21 14.5 35.5t34.5 14.5q19 0 33.5 -14.5t14.5 -35.5zM456 800q0 -18 -13 -32t-30 -14q-21 0 -37 14t-16 32q0 21 16 35.5t37 14.5q17 0 30 -14.5t13 -35.5zM628 700v-419q0 -61 -17 -115.5t-52.5 -95.5
t-91 -65t-131.5 -24q-45 0 -83.5 11t-67.5 31t-45.5 48t-16.5 62q0 36 17.5 52t37.5 16t35.5 -12.5t15.5 -34.5q0 -13 -5 -22.5t-11.5 -17t-11.5 -14t-5 -13.5q0 -38 38 -60t98 -22q63 0 95 24t45.5 66t14.5 98.5t1 121.5v50q-8 -26 -21 -50t-34 -42.5t-49.5 -30
t-66.5 -11.5q-77 0 -120.5 26.5t-65.5 66.5t-27 88t-5 91v133q0 6 -1 14.5t-3.5 16.5t-7.5 13.5t-13 5.5t-15.5 -5t-14 -12.5t-11.5 -15.5t-8 -15l-20 12q4 10 11.5 21t19 20t27.5 14.5t39 5.5q20 0 44.5 -6t45.5 -21.5t35 -42.5t14 -69v-127q0 -30 2 -62.5t11 -59.5
t28.5 -44.5t54.5 -17.5q45 0 74 27t46 65.5t23.5 82t6.5 76.5l1 -1v150l-1 -36q0 22 -8.5 34.5t-20 19t-23 9.5t-17.5 5q-3 0 -3 4v3h213z" />
    <glyph glyph-name="Dcroat" unicode="&#x110;" horiz-adv-x="721" 
d="M29 693q-3 0 -3 4v3h299q75 -1 140.5 -28t114 -73.5t77 -110t28.5 -138.5t-28.5 -138.5t-77 -110t-114 -73.5t-140.5 -28h-299v4q0 2 3 4q6 2 17.5 5t23 9.5t20 19t8.5 34.5v252h-122v38h122v259q0 22 -8.5 34.5t-20 19t-23 9.5t-17.5 5zM286 328h-48v-245
q0 -22 8.5 -33.5t20 -17t23 -6t17.5 -0.5h13q50 0 90 26.5t68.5 71.5t44 103.5t15.5 122.5t-15.5 122.5t-44 103.5t-68.5 72t-90 27h-82v-309h48v-38z" />
    <glyph glyph-name="dcroat" unicode="&#x111;" horiz-adv-x="721" 
d="M29 693q-3 0 -3 4v3h299q75 -1 140.5 -28t114 -73.5t77 -110t28.5 -138.5t-28.5 -138.5t-77 -110t-114 -73.5t-140.5 -28h-299v4q0 2 3 4q6 2 17.5 5t23 9.5t20 19t8.5 34.5v252h-122v38h122v259q0 22 -8.5 34.5t-20 19t-23 9.5t-17.5 5zM286 328h-48v-245
q0 -22 8.5 -33.5t20 -17t23 -6t17.5 -0.5h13q50 0 90 26.5t68.5 71.5t44 103.5t15.5 122.5t-15.5 122.5t-44 103.5t-68.5 72t-90 27h-82v-309h48v-38z" />
    <glyph glyph-name="dotlessi" unicode="&#x131;" horiz-adv-x="337" 
d="M307 693q-6 -2 -17.5 -5t-23 -9.5t-20 -19t-8.5 -34.5v-549q0 -22 8.5 -34.5t20 -19t23 -9.5t17.5 -5q3 -3 3 -4v-4h-284v4q0 2 3 4q6 2 17.5 5t23 9.5t20 19t8.5 34.5v549q0 22 -8.5 34.5t-20 19t-23 9.5t-17.5 5q-3 0 -3 4v3h284v-3q0 -4 -3 -4z" />
    <glyph glyph-name="Lslash" unicode="&#x141;" horiz-adv-x="624" 
d="M238 79q0 -22 8 -32.5t19.5 -15t22.5 -5t17 -0.5h83q37 0 74 24t67.5 55t52 61t29.5 43q0 3 4 3h3l-65 -212h-527v4q0 2 3 4q6 2 17.5 5t23 9.5t20 19t8.5 34.5v206l-61 -20l-8 26l69 23v314q0 22 -8.5 34.5t-20 19t-23 9.5t-17.5 5q-3 0 -3 4v3h284v-3q0 -4 -3 -4
q-6 -2 -17.5 -5t-23 -9.5t-20 -19t-8.5 -34.5v-268l95 31l8 -27l-103 -33v-249v0z" />
    <glyph glyph-name="lslash" unicode="&#x142;" horiz-adv-x="624" 
d="M238 79q0 -22 8 -32.5t19.5 -15t22.5 -5t17 -0.5h83q37 0 74 24t67.5 55t52 61t29.5 43q0 3 4 3h3l-65 -212h-527v4q0 2 3 4q6 2 17.5 5t23 9.5t20 19t8.5 34.5v206l-61 -20l-8 26l69 23v314q0 22 -8.5 34.5t-20 19t-23 9.5t-17.5 5q-3 0 -3 4v3h284v-3q0 -4 -3 -4
q-6 -2 -17.5 -5t-23 -9.5t-20 -19t-8.5 -34.5v-268l95 31l8 -27l-103 -33v-249v0z" />
    <glyph glyph-name="OE" unicode="&#x152;" horiz-adv-x="994" 
d="M826 462q0 3 4 3h4v-230q-2 -1 -4 0q-4 0 -4 4q-2 10 -8 27t-16.5 33t-26 27.5t-37.5 11.5h-130v-262q0 -22 8.5 -32.5t20 -14t23 -3.5h17.5h83q26 0 52 11.5t49.5 29.5t43.5 39t35.5 40.5t25 34t11.5 18.5q0 3 4 3h3l-61 -202h-522q-75 0 -141.5 26.5t-116 73t-78.5 111
t-29 139.5t29 139.5t78.5 111t116 73t141.5 26.5h508v-25l1 -138h-4q-4 0 -4 3q-2 6 -9.5 28t-22.5 45.5t-38.5 42.5t-56.5 19h-167v-311h130q22 0 37.5 11.5t26 27.5t16.5 32.5t8 26.5zM417 675q-58 0 -101 -28t-71.5 -73.5t-43 -104t-14.5 -119t13.5 -119t40.5 -104
t67 -73.5t93 -28h67v649h-51z" />
    <glyph glyph-name="oe" unicode="&#x153;" horiz-adv-x="1277" 
d="M1227 230q-12 -51 -35.5 -95.5t-61 -78t-89.5 -52.5t-121 -19q-85 0 -150 27.5t-110 74.5q-45 -46 -109.5 -74t-149.5 -28q-90 0 -157.5 31.5t-112.5 83t-67.5 117t-22.5 133.5q0 69 22.5 134.5t67.5 116.5t112.5 82.5t157.5 31.5q81 0 146.5 -29.5t111.5 -74.5
q45 48 110 76t151 28q70 0 121.5 -19t89 -52t62 -77.5t40.5 -94.5q2 -8 4 -13v-1q-40 -40 -84.5 -62t-90.5 -34t-92.5 -17.5t-90 -13t-84 -20.5t-73.5 -40q2 -5 3.5 -10.5t3.5 -10.5q16 -45 40 -85.5t54.5 -70.5t68 -47.5t80.5 -17.5q45 0 83.5 16t68 44t49 65.5t26.5 81.5z
M204 266q14 -51 36 -97.5t51 -81t64 -55t74 -20.5q34 0 62 14t49 36.5t36 51.5t24 59q-41 84 -41 177q0 71 24 139q-17 41 -40 77t-50.5 63t-59 42.5t-64.5 15.5q-28 0 -56 -12q-50 -21 -79 -64.5t-41.5 -100t-9 -120t20.5 -124.5zM831 672q-47 -20 -76.5 -60t-43 -91
t-12 -109.5t15.5 -115.5q40 30 88 43t99.5 21t104 15.5t102.5 27.5l-2 9q-13 55 -33.5 104t-48.5 86.5t-62 59.5t-74 22q-28 0 -58 -12z" />
    <glyph glyph-name="Scaron" unicode="&#x160;" horiz-adv-x="570" 
d="M369 851l-56 -88h-56l-55 88h25l58 -52l58 52h26zM535 177q0 -48 -22.5 -83.5t-59 -59t-83.5 -35t-95 -11.5q-45 0 -88.5 11t-77.5 31t-54.5 48t-20.5 63q0 40 19 58t42 18q21 0 37.5 -13.5t16.5 -37.5q0 -14 -6.5 -24.5t-15 -18.5t-15 -14.5t-6.5 -13.5q0 -19 12.5 -34
t34 -25.5t50.5 -16.5t61 -6q30 0 58.5 6t51 20t36.5 37t14 57q0 42 -28 69.5t-70.5 50t-92 44t-92 51t-70.5 71t-28 103.5q0 48 19 84t50 59.5t71.5 35t82.5 11.5q39 0 78 -11t70 -31t50.5 -48t19.5 -61q0 -38 -20.5 -56t-43.5 -18q-20 0 -36.5 13t-16.5 38q0 11 6 20.5
t13.5 18.5t14 17t6.5 15q0 19 -10 34t-27.5 25t-40.5 15t-48 5q-26 0 -52 -7.5t-46 -22.5t-32.5 -38.5t-12.5 -55.5q0 -41 29.5 -68.5t73.5 -49.5t95.5 -43.5t95.5 -51t73.5 -71t29.5 -103.5z" />
    <glyph glyph-name="scaron" unicode="&#x161;" horiz-adv-x="554" 
d="M361 851l-56 -88h-56l-55 88h25l58 -52l58 52h26zM535 177q0 -48 -22.5 -83.5t-59 -59t-83.5 -35t-95 -11.5q-45 0 -88.5 11t-77.5 31t-54.5 48t-20.5 63q0 40 19 58t42 18q21 0 37.5 -13.5t16.5 -37.5q0 -14 -6.5 -24.5t-15 -18.5t-15 -14.5t-6.5 -13.5
q0 -19 13.5 -34.5t35.5 -26t50.5 -16.5t58.5 -6q31 0 60 7t51 21.5t35.5 37.5t13.5 55q0 42 -28 69.5t-70.5 50t-92 44t-92 51t-70.5 71t-28 103.5q0 48 19 84t50 59.5t71.5 35t82.5 11.5q39 0 78 -11t70 -31t50.5 -48t19.5 -61q0 -38 -20.5 -56t-43.5 -18q-20 0 -36.5 13
t-16.5 38q0 11 6 20.5t13.5 18.5t14 17t6.5 15q0 19 -11 34t-29 25t-41.5 15t-48.5 5q-28 0 -53 -8.5t-44 -24.5t-30.5 -39t-11.5 -52q0 -41 29.5 -68.5t73.5 -49.5t95.5 -43.5t95.5 -51t73.5 -71t29.5 -103.5z" />
    <glyph glyph-name="Ydieresis" unicode="&#x178;" horiz-adv-x="698" 
d="M689 692q-6 -2 -19.5 -7.5t-29.5 -15.5t-33.5 -25t-30.5 -36l2 4l-169 -290v-246q0 -22 8.5 -34.5t20 -19t23.5 -9.5t18 -5q2 -2 2 -4v-4h-285q0 2 1 4q2 3 3 4q6 2 17.5 5t23 9.5t20 19t8.5 34.5v225l-178 326q-13 20 -25 32t-22.5 18.5t-19.5 9.5l-15 5q-2 1 -2.5 4
t-0.5 4h275v-4q0 -4 -3 -4q-6 -2 -13.5 -6t-13.5 -11t-8 -18t5 -27l151 -274l157 268q5 15 1.5 26.5t-10 20t-15 14t-13.5 7.5q-1 0 -3 4q-1 2 -1 4h115h62q0 -1 -0.5 -4t-2.5 -4zM334 800q0 -18 -14.5 -32t-33.5 -14q-21 0 -35.5 14t-14.5 32q0 21 14.5 35.5t35.5 14.5
q19 0 33.5 -14.5t14.5 -35.5zM462 800q0 -18 -13.5 -32t-30.5 -14q-20 0 -36 14t-16 32q0 21 16 35.5t36 14.5q17 0 30.5 -14.5t13.5 -35.5z" />
    <glyph glyph-name="Zcaron" unicode="&#x17d;" horiz-adv-x="611" 
d="M389 851l-56 -88h-55l-56 88h25l58 -52l58 52h26zM564 700q-18 -71 -49 -133t-68.5 -118.5t-77.5 -109t-76 -103.5t-63.5 -103t-39.5 -107h169q37 0 74.5 24.5t68.5 56t52.5 61.5t26.5 41q0 3 4 3h3l-64 -212h-498q9 56 34.5 108.5t61 104.5t77 105t81 109t73.5 117.5
t55 130.5h-157q-42 -4 -78.5 -26t-64 -48.5t-44 -50t-18.5 -29.5q-2 -3 -4 -3h-4l45 182h481z" />
    <glyph glyph-name="zcaron" unicode="&#x17e;" horiz-adv-x="611" 
d="M389 851l-56 -88h-55l-56 88h25l58 -52l58 52h26zM571 700l-365 -674h153q37 0 74.5 24.5t68.5 56t52.5 61.5t26.5 41q0 3 4 3h3l-64 -212h-498l12 20l362 655h-144q-42 -4 -78.5 -26t-64 -48.5t-43.5 -50t-18 -29.5q-2 -3 -4 -3h-4l44 182h483z" />
    <glyph glyph-name="circumflex" unicode="&#x2c6;" horiz-adv-x="197" 
d="M99 816l-58 -53h-26l56 88h55l56 -88h-25z" />
    <glyph glyph-name="caron" unicode="&#x2c7;" horiz-adv-x="197" 
d="M182 851l-56 -88h-55l-56 88h26l57 -52l59 52h25z" />
    <glyph glyph-name="ring" unicode="&#x2da;" horiz-adv-x="190" 
d="M169 790q0 -29 -21.5 -49.5t-51.5 -20.5q-32 0 -53.5 20.5t-21.5 49.5q0 30 22.5 50t52.5 20t51.5 -21t21.5 -49zM96 846q-20 0 -29.5 -17.5t-9.5 -38t9.5 -38t29.5 -17.5q19 0 28.5 17.5t9.5 38t-9.5 38t-28.5 17.5z" />
    <glyph glyph-name="tilde" unicode="&#x2dc;" horiz-adv-x="260" 
d="M240 811q-5 -6 -11.5 -15.5t-14.5 -18.5t-18 -15.5t-22 -6.5q-15 0 -28.5 7t-25.5 16t-23.5 16t-23.5 7q-8 0 -17 -4t-20 -15l-16 8q6 7 13 17t16 19.5t20 16t24 6.5q12 0 23.5 -7t23.5 -15.5t24.5 -15.5t26.5 -7q18 0 36 17l13 -10v0z" />
    <glyph glyph-name="endash" unicode="&#x2013;" horiz-adv-x="360" 
d="M340 305v-27h-320v27h320z" />
    <glyph glyph-name="emdash" unicode="&#x2014;" horiz-adv-x="613" 
d="M593 307v-31h-573v31h573z" />
    <glyph glyph-name="quoteleft" unicode="&#x2018;" horiz-adv-x="192" 
d="M172 700l-50 -151h-97l124 151h23z" />
    <glyph glyph-name="quoteright" unicode="&#x2019;" horiz-adv-x="201" 
d="M166 700l-123 -151h-23l49 151h97z" />
    <glyph glyph-name="quotesinglbase" unicode="&#x201a;" horiz-adv-x="190" 
d="M167 81l-125 -151h-23l51 151h97z" />
    <glyph glyph-name="quotedblleft" unicode="&#x201c;" horiz-adv-x="322" 
d="M298 700l-51 -151h-97l125 151h23zM173 700l-51 -151h-97l125 151h23z" />
    <glyph glyph-name="quotedblright" unicode="&#x201d;" horiz-adv-x="321" 
d="M172 700l-125 -151h-23l51 151h97zM296 700l-126 -151h-23l52 151h97z" />
    <glyph glyph-name="quotedblbase" unicode="&#x201e;" horiz-adv-x="311" 
d="M167 81l-126 -151h-23l52 151h97zM291 81l-125 -151h-23l51 151h97z" />
    <glyph glyph-name="dagger" unicode="&#x2020;" horiz-adv-x="350" 
d="M187 478v-570h-27v570h-140v27h140v195h27v-195h144v-27h-144z" />
    <glyph glyph-name="bullet" unicode="&#x2022;" horiz-adv-x="306" 
d="M278 350q0 -26 -10 -48.5t-27.5 -39.5t-40 -27t-46.5 -10q-26 0 -48.5 10t-40 27t-27.5 39.5t-10 48.5q0 24 10 47t27.5 40t40 27.5t48.5 10.5q24 0 46.5 -10.5t40 -27.5t27.5 -40t10 -47z" />
    <glyph glyph-name="guilsinglleft" unicode="&#x2039;" horiz-adv-x="215" 
d="M195 157v-46l-175 225v28l175 225v-46l-152 -193z" />
    <glyph glyph-name="guilsinglright" unicode="&#x203a;" horiz-adv-x="215" 
d="M195 336l-175 -225v46l152 193l-152 193v46l175 -225v-28z" />
    <glyph glyph-name="Euro" unicode="&#x20ac;" horiz-adv-x="576" 
d="M548 125q0 -30 -14 -55.5t-36.5 -44t-51 -29.5t-56.5 -11q-68 0 -121 25t-90.5 67t-59.5 97t-29 115h-75v23h72q-1 18 -1 36.5t2 36.5h-73v23h76q7 58 29 110.5t58.5 92.5t86.5 64t115 24q31 0 61.5 -9.5t54 -27t38 -43t14.5 -58.5q0 -34 -17 -49t-37 -15
q-19 0 -33.5 11.5t-14.5 31.5q0 9 5.5 17t12 15.5t12 14t5.5 13.5q0 35 -24.5 54.5t-59.5 19.5q-36 0 -64.5 -21.5t-49 -58.5t-33 -85t-17.5 -101h154v-23h-155q-2 -18 -2 -36.5t1 -36.5h156v-23h-154q4 -55 16.5 -105t33 -88.5t49.5 -61.5t66 -23q35 0 59 19.5t24 55.5
q0 7 -5.5 13.5t-12 14t-12 15.5t-5.5 17q0 20 14.5 31.5t33.5 11.5q20 0 37 -15t17 -49z" />
    <glyph glyph-name="trademark" unicode="&#x2122;" horiz-adv-x="441" 
d="M251 639v-163h-25v224h21l76 -140l76 140h22v-224h-26v163l-63 -116h-18zM124 674v-198h-26v198h-78v26h181v-26h-77z" />
    <glyph glyph-name="minus" unicode="&#x2212;" horiz-adv-x="400" 
d="M380 368v-31h-360v31h360z" />
    </font>
</defs>
</svg>
